<?xml version="1.0" encoding="UTF-8"?>
<svg version="1.1" xmlns="http://www.w3.org/2000/svg" width="2000" height="2000">
<path d="M0 0 C660 0 1320 0 2000 0 C2000 660 2000 1320 2000 2000 C1340 2000 680 2000 0 2000 C0 1340 0 680 0 0 Z " fill="#0E222C" transform="translate(0,0)"/>
<path d="M0 0 C5.80377347 3.37598313 9.6939004 6.90721123 12.17578125 13.265625 C12.2481108 16.74433189 12.10889034 20.06270674 11.79492188 23.51953125 C11.6208906 25.86180868 11.6208906 25.86180868 12.17578125 29.265625 C14.2344419 31.05113003 15.81220699 32.02537225 18.17578125 33.265625 C19.66597652 34.23785627 21.14565383 35.2263104 22.6171875 36.2265625 C25.24642977 37.97947672 27.8757679 39.73224638 30.50537109 41.48461914 C35.28459356 44.66981352 40.06214111 47.85745927 44.8359375 51.05078125 C49.94265497 54.46565009 55.055295 57.8714356 60.17578125 61.265625 C60.8085498 61.68553711 61.44131836 62.10544922 62.09326172 62.53808594 C63.63701519 63.55840566 65.18728709 64.56884593 66.73828125 65.578125 C67.52332031 66.08988281 68.30835938 66.60164062 69.1171875 67.12890625 C71.19238275 68.27479205 72.82508445 68.96387924 75.17578125 69.265625 C76.04203125 68.79125 76.90828125 68.316875 77.80078125 67.828125 C83.53582486 65.17301222 88.89117849 65.56862755 94.86328125 67.390625 C101.58504091 71.19539462 107.00694164 75.59126945 109.17578125 83.265625 C110.0194617 89.71934557 109.92006361 95.79898865 106.578125 101.51953125 C103.95027358 104.79153566 100.68572215 107.02122056 97.17578125 109.265625 C96.24765625 109.884375 95.31953125 110.503125 94.36328125 111.140625 C92.17578125 112.265625 92.17578125 112.265625 89.17578125 112.265625 C89.21058594 113.23113281 89.24539063 114.19664062 89.28125 115.19140625 C89.67110574 132.28617445 87.78358887 149.2681907 86.17578125 166.265625 C86.96130371 166.56887695 87.74682617 166.87212891 88.55615234 167.18457031 C93.63111528 169.27887934 97.24484131 172.71405843 100.05078125 177.390625 C103.42728489 186.01946763 102.61214496 193.7481423 99.17578125 202.265625 C96.45166931 206.53340038 93.27634038 209.31935046 88.37109375 210.81640625 C81.39405108 212.24409292 75.00457359 212.23881086 68.73828125 208.640625 C62.93298505 204.67739394 58.58425918 199.98401079 56.17578125 193.265625 C55.38555726 186.218559 56.26535088 180.6928254 59.17578125 174.265625 C58.45390625 174.018125 57.73203125 173.770625 56.98828125 173.515625 C53.89551835 172.14106371 51.80926706 170.38619352 49.17578125 168.265625 C47.25144749 166.95442379 45.31327118 165.66335761 43.36328125 164.390625 C39.81358434 162.05164379 36.34470607 159.68643104 32.98828125 157.078125 C30.41985669 155.10235917 27.85169169 153.49379282 24.984375 151.98828125 C19.34500654 148.90445866 14.31183702 145.10241641 9.21875 141.19921875 C5.21770303 138.09210912 5.21770303 138.09210912 0.3984375 137.31640625 C-0.33503906 137.62964844 -1.06851562 137.94289063 -1.82421875 138.265625 C-2.47003906 138.51441406 -3.11585938 138.76320313 -3.78125 139.01953125 C-4.39355469 139.28636719 -5.00585938 139.55320312 -5.63671875 139.828125 C-12.1061756 142.292102 -17.6475928 141.82884995 -24.02734375 139.26953125 C-25.82421875 138.265625 -25.82421875 138.265625 -28.26171875 135.515625 C-30.75113346 132.867772 -30.75113346 132.867772 -34.76171875 133.015625 C-40.43549457 133.98800255 -45.30413443 136.84288039 -50.34375 139.49609375 C-54.16017257 141.4364298 -57.97191711 142.90711181 -62.015625 144.2890625 C-66.42312988 145.82157463 -70.74077591 147.58328964 -75.07421875 149.3125 C-77.82421875 150.265625 -77.82421875 150.265625 -80.82421875 150.265625 C-80.82421875 150.925625 -80.82421875 151.585625 -80.82421875 152.265625 C-81.41589844 152.45898438 -82.00757813 152.65234375 -82.6171875 152.8515625 C-86.02036433 153.97300087 -89.38599462 155.08461938 -92.69921875 156.453125 C-94.82421875 157.265625 -94.82421875 157.265625 -97.82421875 157.265625 C-97.82421875 157.925625 -97.82421875 158.585625 -97.82421875 159.265625 C-100.79421875 160.255625 -100.79421875 160.255625 -103.82421875 161.265625 C-103.705625 162.17183594 -103.58703125 163.07804688 -103.46484375 164.01171875 C-102.64100619 171.79698373 -102.39254722 177.61080472 -106.82421875 184.265625 C-108.94921875 186.828125 -108.94921875 186.828125 -110.82421875 188.265625 C-111.48421875 188.265625 -112.14421875 188.265625 -112.82421875 188.265625 C-112.82421875 188.925625 -112.82421875 189.585625 -112.82421875 190.265625 C-119.81910662 194.26270379 -128.26127342 194.73730366 -136.0390625 192.6796875 C-141.60188077 189.92981362 -146.08803763 183.73798723 -148.82421875 178.265625 C-149.45139425 170.338538 -149.94879355 163.63671799 -144.82421875 157.265625 C-142.26171875 155.015625 -142.26171875 155.015625 -139.82421875 153.265625 C-139.11265625 152.4921875 -139.11265625 152.4921875 -138.38671875 151.703125 C-136.82421875 150.265625 -136.82421875 150.265625 -133.80419922 149.28295898 C-130.73450617 147.64432066 -130.73450617 147.64432066 -130.17755127 145.33865356 C-129.83482553 142.73506529 -129.67969587 140.17516659 -129.58203125 137.55078125 C-129.5239328 136.58466415 -129.46583435 135.61854706 -129.40597534 134.62315369 C-129.22663751 131.52562355 -129.08784478 128.42771645 -128.94921875 125.328125 C-128.83460328 123.27524541 -128.71744352 121.22250618 -128.59765625 119.16992188 C-128.32587743 114.3572034 -128.10469244 109.54459018 -127.92062378 104.72775269 C-127.83641547 102.57712214 -127.73339702 100.4272447 -127.62719727 98.27758789 C-127.59295654 97.21403076 -127.55871582 96.15047363 -127.5234375 95.0546875 C-127.49080811 94.19182129 -127.45817871 93.32895508 -127.42456055 92.43994141 C-128.1091205 88.71563417 -130.7936308 87.10871929 -133.7109375 84.953125 C-138.20320458 81.36595425 -140.47207053 76.89319247 -141.23046875 71.234375 C-141.49069415 62.47345321 -139.51207006 57.89856227 -133.57421875 51.515625 C-129.07641089 47.213374 -125.81854231 45.35231316 -119.484375 45.21484375 C-113.72477796 45.47220633 -109.6780153 47.03369509 -104.83203125 50.109375 C-102.74243164 51.31272419 -101.1963309 51.86880837 -98.82421875 52.265625 C-93.24791588 50.48236981 -88.07466338 48.02000904 -82.82421875 45.453125 C-77.16394357 42.72161153 -71.50375014 40.34377221 -65.57421875 38.265625 C-59.03007298 35.95220785 -53.64593729 32.89365996 -47.8125 29.1015625 C-43.4627205 26.42914895 -38.06908653 23.265625 -32.82421875 23.265625 C-32.85902344 22.61335937 -32.89382813 21.96109375 -32.9296875 21.2890625 C-33.09917201 15.81713415 -33.10161082 11.8744576 -29.82421875 7.265625 C-21.16251442 -1.78624619 -11.80617762 -5.79094032 0 0 Z " fill="#0BD0F7" transform="translate(1121.82421875,718.734375)"/>
<path d="M0 0 C2.59878119 2.20789014 4.74345155 4.42858433 7 7 C7.33 1.39 7.66 -4.22 8 -10 C18.23 -10 28.46 -10 39 -10 C39.06796564 6.54318637 39.12312558 23.08625184 39.15543652 39.62953949 C39.17084403 47.31248507 39.19181508 54.99533714 39.22631836 62.67822266 C39.25640961 69.38192676 39.27561932 76.08556309 39.28226548 82.78933287 C39.2861447 86.33232241 39.29513023 89.87511819 39.31719017 93.41804504 C39.45733327 116.86060431 39.15589665 138.74150046 24 158 C23.39285156 158.825 22.78570313 159.65 22.16015625 160.5 C10.64213551 173.83007825 -7.12373858 178.64301201 -24 180 C-38.95776504 180.81049614 -53.36649106 180.19548052 -68 177 C-69.05703125 176.80664062 -70.1140625 176.61328125 -71.203125 176.4140625 C-82.86570818 174.01294243 -93.51643516 168.04212965 -103 161 C-100.24823658 155.13927311 -97.22493557 149.4505829 -93.9375 143.875 C-92.96103516 142.20050781 -92.96103516 142.20050781 -91.96484375 140.4921875 C-91.31644531 139.66976563 -90.66804687 138.84734375 -90 138 C-85.43000601 138 -83.10145689 139.46094842 -79.3125 141.6875 C-61.63341982 151.62221409 -40.59037241 154.65472262 -20.68359375 150.76171875 C-12.4264921 148.41799994 -4.82606635 144.35909386 -0.375 136.875 C4.94300255 126.52418746 5.38207621 117.40568237 5 106 C4.33355469 106.51949219 3.66710937 107.03898437 2.98046875 107.57421875 C-13.89427436 120.34238102 -32.36737713 124.3918643 -53.28222656 121.70703125 C-71.22020974 118.65026087 -86.74918154 109.29410941 -97.9609375 94.9921875 C-104.66833915 85.14952531 -109.34725399 72.9606107 -110 61 C-110.06445312 59.83597656 -110.12890625 58.67195312 -110.1953125 57.47265625 C-110.88353788 38.91580592 -104.68254214 22.6921325 -92.578125 8.5703125 C-68.6940173 -15.24141911 -27.88215358 -18.53682486 0 0 Z " fill="#FCFDFD" transform="translate(928,963)"/>
<path d="M0 0 C0.91136719 0.30035156 1.82273437 0.60070312 2.76171875 0.91015625 C9.26832435 3.21188044 14.56351113 6.79948389 20 11 C21.03447266 11.76763672 21.03447266 11.76763672 22.08984375 12.55078125 C34.36405594 22.34584563 41.87848253 37.87358555 45 53 C45.41601919 57.0939766 45.47760023 61.13717992 45.4375 65.25 C45.42614014 66.89198364 45.42614014 66.89198364 45.41455078 68.56713867 C45.06521846 85.82084038 39.43191617 100.94940543 28 114 C27.47921875 114.60328125 26.9584375 115.2065625 26.421875 115.828125 C13.92066592 129.30030178 -4.1498816 136.51403134 -22.2890625 137.28515625 C-44.27242456 137.81633863 -64.59187869 132.87467818 -81.3203125 117.70703125 C-88.26650865 110.64775749 -92.97416433 103.01080461 -97 94 C-97.31839844 93.34773438 -97.63679687 92.69546875 -97.96484375 92.0234375 C-104.45490325 77.36429814 -103.54929281 55.89979727 -98.28515625 41.05078125 C-89.69003973 20.64717639 -75.18776872 7.1580511 -54.8203125 -1.32421875 C-37.96405153 -6.87160256 -16.54067485 -6.26507868 0 0 Z " fill="#AFE9ED" transform="translate(753,956)"/>
<path d="M0 0 C1.87727783 -0.0151062 1.87727783 -0.0151062 3.79248047 -0.03051758 C20.43940897 0.12536082 36.29472188 4.73440685 48.5 16.4375 C62.35393379 31.2962246 62.94983484 50.51804939 62.79296875 69.61328125 C62.78736211 71.63494042 62.78309707 73.6566037 62.78010559 75.67826843 C62.76874089 80.95705748 62.7393473 86.23559244 62.70599365 91.51428223 C62.67511063 96.91768966 62.66156157 102.32113881 62.64648438 107.72460938 C62.6144683 118.29570158 62.56177032 128.86653975 62.5 139.4375 C52.27 139.4375 42.04 139.4375 31.5 139.4375 C31.005 132.0125 31.005 132.0125 30.5 124.4375 C29.675 125.489375 28.85 126.54125 28 127.625 C20.80455589 135.92486111 9.76836461 140.39343016 -1.11328125 141.3515625 C-7.24920648 141.57249598 -13.3629159 141.56900894 -19.5 141.4375 C-20.35078125 141.42074219 -21.2015625 141.40398437 -22.078125 141.38671875 C-34.35047926 140.59128838 -46.52618172 134.06328748 -54.8125 125.125 C-62.65072862 115.28267884 -64.21876842 105.7231157 -63.5 93.4375 C-61.70408501 82.43371579 -55.38400938 73.92639404 -46.5 67.4375 C-31.60981102 57.4666861 -13.09029711 58.94682442 3.9375 59.1875 C6.4225116 59.20760186 8.90753895 59.22584608 11.39257812 59.2421875 C17.4287341 59.28587543 23.4642918 59.35249342 29.5 59.4375 C29.23670883 57.04354956 28.95860836 54.65288011 28.671875 52.26171875 C28.59952637 51.58975464 28.52717773 50.91779053 28.45263672 50.22546387 C27.51629425 42.63042856 24.43606229 37.91684149 18.6875 33.0625 C10.696386 28.98859875 3.62229591 27.93924686 -5.3125 28.0625 C-6.37839355 28.07337646 -7.44428711 28.08425293 -8.54248047 28.09545898 C-22.07446937 28.37007815 -31.7436164 32.15025877 -43.5 38.4375 C-44.83073092 39.10934629 -46.1627568 39.77871107 -47.5 40.4375 C-48.31404297 38.79201172 -48.31404297 38.79201172 -49.14453125 37.11328125 C-49.8670797 35.65880061 -50.58974196 34.2043765 -51.3125 32.75 C-51.84713867 31.6681543 -51.84713867 31.6681543 -52.39257812 30.56445312 C-53.92637357 27.48279071 -55.42746243 24.54762664 -57.32421875 21.66796875 C-58.5 19.4375 -58.5 19.4375 -58.45703125 17.30859375 C-54.97112326 10.49328792 -42.35300639 6.70414703 -35.5 4.4375 C-23.78734648 0.91285889 -12.19577791 0.06365229 0 0 Z " fill="#FCFCFC" transform="translate(1464.5,951.5625)"/>
<path d="M0 0 C0 0.66 0 1.32 0 2 C0.53625 2.268125 1.0725 2.53625 1.625 2.8125 C4 4 4 4 6.4375 5.625 C11.81834883 7.70181885 17.29932551 7.72774568 23 7 C24.28197266 6.21496094 24.28197266 6.21496094 25.58984375 5.4140625 C28 4 28 4 30.5 4.125 C33.31294558 5.10953095 35.50984728 6.36014333 38 8 C38.95648437 8.62777344 39.91296875 9.25554688 40.8984375 9.90234375 C45.26326639 12.85437538 49.5993224 15.84600114 53.921875 18.859375 C56.56151238 20.69506191 59.20824238 22.51652038 61.875 24.3125 C62.51179688 24.74175781 63.14859375 25.17101562 63.8046875 25.61328125 C66.1504821 27.09505542 68.55175711 28.46347191 70.96191406 29.8371582 C71.63448242 30.220896 72.30705078 30.60463379 73 31 C73.77311523 31.43852295 74.54623047 31.8770459 75.34277344 32.32885742 C91.16061586 41.50438139 91.16061586 41.50438139 93.1640625 47.4609375 C93.0644907 50.7468068 92.58444851 53.77060202 92 57 C92.41668874 59.79400765 93.19494663 62.28294489 94 65 C94 68 94 68 91.80078125 70.36328125 C90.41439453 71.66845703 90.41439453 71.66845703 89 73 C84.14425682 78.15675173 79.40947902 83.39211056 75 88.9375 C74.36320312 89.73671875 73.72640625 90.5359375 73.0703125 91.359375 C71.9633399 92.77128722 70.85978836 94.18612562 69.78027344 95.61914062 C68.49612264 97.322904 67.18712575 99.00523067 65.875 100.6875 C65.08867188 101.72261719 64.30234375 102.75773438 63.4921875 103.82421875 C61 106 61 106 58 106.03515625 C54.88460186 104.96018163 52.74972911 103.72930392 50.125 101.75 C46.38133929 98.99032262 42.61230046 96.47928961 38.59375 94.140625 C37 93 37 93 35 90 C34.91015625 87.8359375 34.91015625 87.8359375 35.0625 85.375 C35.18054819 78.63641601 33.89755644 73.3469777 29.625 68.0625 C27.11233886 66.08826625 25.03365345 64.95343394 22 64 C22 63.34 22 62.68 22 62 C11.43557507 61.56518373 3.51434163 62.06972193 -5 69 C-7.28770502 72.51326128 -8.13298377 75.6235971 -8.8125 79.6875 C-9.54731053 83.41807653 -9.66281637 83.76818625 -13 86.0625 C-16 87 -16 87 -18 87 C-18 87.66 -18 88.32 -18 89 C-19.051875 89.4021875 -19.051875 89.4021875 -20.125 89.8125 C-23.02741098 90.95105779 -23.02741098 90.95105779 -25.75 92.5 C-28.51652323 93.77685688 -30.62246168 94.41491775 -33.5625 95 C-37.29684584 95.75059111 -39.73765201 97.01076342 -43 99 C-45.58068776 99.83009383 -48.17289882 100.55862532 -50.79296875 101.25390625 C-53.17201591 101.87640549 -53.17201591 101.87640549 -55 104 C-56.66666667 104.66666667 -58.33333333 105.33333333 -60 106 C-60.99 106.99 -60.99 106.99 -62 108 C-63.92178996 108.72895481 -65.84543903 109.45367118 -67.78125 110.14453125 C-69.98231895 110.99318283 -72.03075789 111.97913245 -74.125 113.0625 C-80.13880425 116.11043198 -84.20149781 117.46634361 -91 116 C-92 115 -92 115 -92.12841797 112.69482422 C-92.10148785 105.46467386 -91.75213176 98.32662078 -91.125 91.125 C-90.99182373 89.52990601 -90.99182373 89.52990601 -90.85595703 87.90258789 C-89.95945566 77.26352729 -88.99232145 66.63050744 -88 56 C-87.26394531 55.70867188 -86.52789063 55.41734375 -85.76953125 55.1171875 C-78.14644486 51.91488701 -73.23788722 48.89493353 -70 41 C-69.71306612 38.75866742 -69.51033409 36.5055681 -69.375 34.25 C-69.30023437 33.07953125 -69.22546875 31.9090625 -69.1484375 30.703125 C-69.07496094 29.36507812 -69.07496094 29.36507812 -69 28 C-66.18984699 26.72376007 -63.37706541 25.45394354 -60.5625 24.1875 C-59.3878418 23.65286133 -59.3878418 23.65286133 -58.18945312 23.10742188 C-53.50544391 21.00636424 -48.82695683 19.22957714 -43.94067383 17.65942383 C-41.68057957 16.89146376 -39.64948113 15.90536577 -37.5625 14.75 C-32.08614497 11.90469504 -26.38970221 9.78216593 -20.62670898 7.60229492 C-15.54388323 5.6596946 -10.70597852 3.50100237 -5.9453125 0.84765625 C-4 0 -4 0 0 0 Z " fill="#0F242E" transform="translate(1095,754)"/>
<path d="M0 0 C0.99061935 0.00323273 0.99061935 0.00323273 2.00125122 0.00653076 C27.77741724 0.14136821 49.93857916 6.73580745 68.9765625 24.76171875 C71.02793702 26.94339231 72.28056378 28.56353373 73.375 31.3125 C72.66537109 31.91384766 72.66537109 31.91384766 71.94140625 32.52734375 C67.23493961 36.57325367 62.84050323 40.81109625 58.55078125 45.296875 C56.30684133 47.37564161 54.04486047 48.83495901 51.375 50.3125 C50.86453125 49.81621094 50.3540625 49.31992187 49.828125 48.80859375 C34.74823244 34.71798492 17.59264846 29.72244756 -2.65234375 30.03515625 C-18.26378968 30.63778744 -32.42596334 37.58462022 -43.625 48.3125 C-55.38585828 61.40549434 -59.80288441 74.78809785 -59.8125 92.125 C-59.83086914 93.85073242 -59.83086914 93.85073242 -59.84960938 95.61132812 C-59.87830322 112.30158365 -53.75369895 126.59742912 -42.5 138.9375 C-27.42583535 153.17047243 -8.85717698 156.01783457 10.97265625 155.7109375 C27.66384753 155.02047015 40.00162435 145.75827262 52.375 135.3125 C55.1301515 137.86950704 57.87816963 140.43405846 60.625 143 C61.40230469 143.72123047 62.17960938 144.44246094 62.98046875 145.18554688 C66.74381743 148.70765525 70.31325222 152.13963407 73.375 156.3125 C56.74737987 174.43960491 33.66151348 185.29726197 8.93359375 186.65625 C5.05863885 186.68655268 1.24226139 186.54761652 -2.625 186.3125 C-4.50058594 186.26222656 -4.50058594 186.26222656 -6.4140625 186.2109375 C-31.50622461 185.22387522 -55.10384661 173.90523766 -72.20214844 155.62646484 C-92.20751676 132.97313677 -96.21152572 106.65907265 -94.625 77.3125 C-92.26591594 54.2036228 -77.54753871 33.78793429 -60.1953125 19.28125 C-42.33600648 6.05213443 -22.04111779 -0.09774332 0 0 Z " fill="#FCFDFD" transform="translate(559.625,907.6875)"/>
<path d="M0 0 C1.15959229 0.00563965 2.31918457 0.0112793 3.51391602 0.01708984 C20.13683541 0.2533072 32.80997758 4.29141064 45.09375 15.97265625 C56.50515228 28.00686394 59.49725141 42.56470551 59.42602539 58.59594727 C59.42617142 59.47508286 59.42631744 60.35421844 59.4264679 61.25999451 C59.42577755 64.13299119 59.41802674 67.00592105 59.41015625 69.87890625 C59.40828895 71.883865 59.40686652 73.8888242 59.40586853 75.89378357 C59.40206796 81.14622275 59.39225891 86.39863385 59.38116455 91.65106201 C59.37089731 97.02062602 59.36635957 102.39019461 59.36132812 107.75976562 C59.35063424 118.27735801 59.33305759 128.79492227 59.3125 139.3125 C48.7525 139.3125 38.1925 139.3125 27.3125 139.3125 C27.29791748 136.82025879 27.28333496 134.32801758 27.26831055 131.76025391 C27.21782669 123.4980137 27.15120763 115.23595924 27.07678509 106.97390175 C27.03218159 101.96780655 26.99290363 96.96179086 26.96606445 91.95556641 C26.9399312 87.11839826 26.89945867 82.28153771 26.84931374 77.444561 C26.83271254 75.60516582 26.82115646 73.7657175 26.81488609 71.92625809 C26.76601892 58.90086689 26.62883788 46.48283552 17.3125 36.3125 C7.61506414 28.91509701 -2.83938131 28.07710066 -14.6875 29.3125 C-23.11321156 31.34448033 -30.71569753 34.82701385 -35.88671875 41.96875 C-40.69432384 49.83249067 -42.82112372 57.97057473 -42.89282227 67.11035156 C-42.90272186 67.89122131 -42.91262146 68.67209106 -42.92282104 69.47662354 C-42.95435373 72.05209341 -42.97916086 74.62758171 -43.00390625 77.203125 C-43.02448289 78.99103265 -43.04547955 80.77893551 -43.06687927 82.5668335 C-43.12202663 87.26855589 -43.17146823 91.97032166 -43.21972656 96.67211914 C-43.26999518 101.47155611 -43.32565325 106.27093023 -43.38085938 111.0703125 C-43.48835123 120.48432327 -43.58931794 129.89838753 -43.6875 139.3125 C-54.5775 139.3125 -65.4675 139.3125 -76.6875 139.3125 C-76.6875 93.7725 -76.6875 48.2325 -76.6875 1.3125 C-66.4575 1.3125 -56.2275 1.3125 -45.6875 1.3125 C-45.1925 9.2325 -45.1925 9.2325 -44.6875 17.3125 C-43.6975 16.3225 -42.7075 15.3325 -41.6875 14.3125 C-37.67628979 10.79552819 -33.4244604 8.37726862 -28.6875 6 C-28.02363281 5.66291016 -27.35976562 5.32582031 -26.67578125 4.97851562 C-17.78651374 0.65613113 -9.78672696 -0.04921133 0 0 Z " fill="#FCFDFD" transform="translate(1085.6875,951.6875)"/>
<path d="M0 0 C11.22 0 22.44 0 34 0 C44.93745995 25.83418142 55.81570309 51.69171737 66.58691406 77.59570312 C66.99460022 78.57596466 67.40228638 79.5562262 67.82232666 80.56619263 C68.58067246 82.38997595 69.33863717 84.21391781 70.09613037 86.03805542 C72.03591196 90.70454369 73.99957519 95.35917071 76 100 C78.51836743 97.48163257 79.56184146 94.67947072 80.9140625 91.44921875 C81.20060699 90.77594543 81.48715149 90.10267212 81.78237915 89.40899658 C82.7342246 87.17029881 83.67948075 84.92887609 84.625 82.6875 C85.636458 80.30489722 86.64971531 77.92306486 87.66308594 75.54127502 C88.36804811 73.88414375 89.07246565 72.22678069 89.77636719 70.56919861 C93.22456796 62.4538287 96.72743426 54.36252046 100.23675537 46.2734375 C106.9117754 30.88482437 113.49067935 15.45963655 120 0 C130.56 0 141.12 0 152 0 C145.73164994 15.1184486 139.37448269 30.19036549 132.87094116 45.20892334 C130.47958373 50.73156805 128.09360573 56.2565371 125.70703125 61.78125 C124.98692619 63.44775101 124.98692619 63.44775101 124.25227356 65.1479187 C119.54369384 76.0482461 114.86137294 86.95975348 110.1875 97.875 C109.83349121 98.70167175 109.47948242 99.52834351 109.11474609 100.38006592 C107.43465562 104.3036606 105.7550301 108.22745403 104.07568359 112.15136719 C100.38711951 120.7690046 96.69297925 129.3842541 93 138 C81.78 138 70.56 138 59 138 C54.91861123 129.25416692 50.87637992 120.57137033 47.12890625 111.69140625 C46.69310745 110.66530243 46.25730865 109.63919861 45.80830383 108.58200073 C44.39068533 105.24315892 42.9765971 101.90283454 41.5625 98.5625 C39.78798502 94.37972511 38.01212345 90.19752307 36.23566437 86.0155735 C35.70988017 84.77773173 35.18420021 83.53984568 34.65862274 82.30191612 C30.57262457 72.67838738 26.46050037 63.06631719 22.33203125 53.4609375 C21.78325425 52.18361545 21.23449216 50.906287 20.68574524 49.62895203 C18.56627739 44.69610411 16.4463316 39.76346752 14.32180786 34.83279419 C12.85563759 31.42980593 11.39244309 28.02555088 9.9296875 24.62109375 C9.50351639 23.6346286 9.07734528 22.64816345 8.63825989 21.63180542 C5.56743182 14.47537278 2.80127905 7.28332553 0 0 Z " fill="#AFE9ED" transform="translate(1239,953)"/>
<path d="M0 0 C9.53325185 6.99388864 14.53903384 16.65929184 16.7421875 28.125 C18.57888599 40.96577803 16.75626641 53.54225893 8.9375 64.17578125 C2.63143899 71.60792459 -3.46237179 75.52521126 -12.8125 78.23828125 C-13.8025 78.56828125 -14.7925 78.89828125 -15.8125 79.23828125 C-29.48138216 80.21963689 -40.97609327 79.00685493 -52.00390625 70.01953125 C-61.61575799 60.55299908 -65.17290063 49.93792116 -65.3125 36.73828125 C-65.23693143 28.95471841 -64.63709462 22.1748131 -60.8125 15.23828125 C-60.37679687 14.44421875 -59.94109375 13.65015625 -59.4921875 12.83203125 C-55.24259148 5.86548039 -49.1982849 -0.15889685 -41.8125 -3.76171875 C-41.24917969 -4.03886719 -40.68585937 -4.31601562 -40.10546875 -4.6015625 C-26.90361723 -10.07919497 -11.76445969 -7.36912683 0 0 Z " fill="#10242E" transform="translate(748.8125,985.76171875)"/>
<path d="M0 0 C7.34655906 5.95457945 13.38216204 13.87632889 14.9375 23.375 C15.97165984 35.73321009 14.74077725 46.63000175 6.625 56.53125 C0.78130194 62.91603121 -4.74143397 66.82252576 -13.0625 69.375 C-13.82046875 69.6121875 -14.5784375 69.849375 -15.359375 70.09375 C-26.51425488 72.93861869 -39.86339662 71.70119843 -50.0625 66.375 C-56.87427876 62.21224631 -61.03726703 57.18490234 -65.0625 50.375 C-65.7225 49.385 -66.3825 48.395 -67.0625 47.375 C-70.72085154 36.83110825 -70.65715936 25.04159824 -66.5 14.6875 C-61.19442724 3.96504876 -52.56969167 -2.54427091 -41.3125 -6.5 C-27.83511721 -10.00579895 -11.61928865 -7.86291588 0 0 Z " fill="#10242E" transform="translate(920.0625,986.625)"/>
<path d="M0 0 C10.56 0 21.12 0 32 0 C32 45.54 32 91.08 32 138 C21.44 138 10.88 138 0 138 C0 92.46 0 46.92 0 0 Z " fill="#00C3CB" transform="translate(1187,953)"/>
<path d="M0 0 C0.90154816 0.00141495 1.80309631 0.0028299 2.73196411 0.00428772 C5.5947815 0.00985885 8.45751898 0.02240599 11.3203125 0.03515625 C13.26822803 0.04017498 15.2161448 0.04473724 17.1640625 0.04882812 C21.92450968 0.05981883 26.68489757 0.07706348 31.4453125 0.09765625 C31.51301791 2.98867736 31.56249663 5.87809877 31.6015625 8.76953125 C31.62250977 9.58405762 31.64345703 10.39858398 31.66503906 11.23779297 C31.72301499 16.96001724 31.05665263 20.82687399 27.2734375 25.34375 C18.2120123 34.03729683 8.90077256 37.80703977 -3.6796875 37.59765625 C-5.08541016 37.62085938 -5.08541016 37.62085938 -6.51953125 37.64453125 C-13.74896106 37.60408689 -19.1369048 36.11334687 -24.61328125 31.28125 C-25.29583984 30.41693359 -25.29583984 30.41693359 -25.9921875 29.53515625 C-26.46527344 28.95636719 -26.93835937 28.37757812 -27.42578125 27.78125 C-30.372196 23.3871159 -30.12471832 18.17251397 -29.5546875 13.09765625 C-26.94075117 7.86978359 -23.36515799 4.46685982 -18.1171875 1.91015625 C-12.10124118 0.00266107 -6.24287165 -0.03721311 0 0 Z " fill="#10242D" transform="translate(1462.5546875,1031.90234375)"/>
<path d="M0 0 C1.32 0 2.64 0 4 0 C4.23592217 10.06487301 3.5984788 19.97253844 2.77319336 29.99633789 C2.56033462 32.58887347 2.35678542 35.18202648 2.15429688 37.77539062 C2.02137504 39.43493931 1.88793091 41.09444626 1.75390625 42.75390625 C1.6934462 43.52368301 1.63298615 44.29345978 1.57069397 45.08656311 C1.2864806 48.49089681 0.88764878 51.70369811 0 55 C-5.78933328 57.41408492 -5.78933328 57.41408492 -8.89013672 56.35351562 C-10.8280767 55.25020015 -12.62575942 54.04985197 -14.4375 52.75 C-15.07365234 52.32847656 -15.70980469 51.90695312 -16.36523438 51.47265625 C-17.96085678 50.38605625 -19.48765814 49.1998052 -21 48 C-21 47.34 -21 46.68 -21 46 C-21.58265625 45.88785156 -22.1653125 45.77570312 -22.765625 45.66015625 C-25.20310657 44.93999124 -26.7250586 43.95620605 -28.75 42.4375 C-29.36359375 41.98246094 -29.9771875 41.52742187 -30.609375 41.05859375 C-31.29773437 40.53458984 -31.29773437 40.53458984 -32 40 C-30.5189857 36.6159207 -28.57121832 34.25808747 -26.0625 31.5625 C-23.24192923 28.53104543 -21.10113946 25.56075454 -19 22 C-17.33333333 20.33333333 -15.66666667 18.66666667 -14 17 C-13.14572182 15.84858159 -12.31289501 14.68099841 -11.5 13.5 C-9.29632965 10.30847743 -6.78187834 7.71054812 -4 5 C-3.319375 4.071875 -2.63875 3.14375 -1.9375 2.1875 C-1.298125 1.465625 -0.65875 0.74375 0 0 Z " fill="#102933" transform="translate(1197,829)"/>
<path d="M0 0 C2.4754521 2.20783565 3.80988644 3.83608256 4.3515625 7.15234375 C4.52338267 11.84615842 4.21569668 15.35554377 1 19 C-3.71625023 22.2564585 -8.41927596 22.94728157 -14 22 C-17.33600367 19.94161475 -18.8262176 18.2606736 -21 15 C-21.69502786 10.23178561 -21.69437161 6.23443842 -19.3125 2 C-13.74252715 -2.81727382 -6.5251051 -3.70343803 0 0 Z " fill="#0BCFF7" transform="translate(964,913)"/>
<path d="M0 0 C4.05782253 1.56070097 7.10270785 2.99460545 9 7 C9.65749509 10.82808254 9.89916713 14.3704749 7.98046875 17.84765625 C4.7752883 21.78876937 2.20798056 23.8636151 -2.875 24.4375 C-6.35364369 24.35437065 -6.95454794 24.03557118 -9.875 21.75 C-13.55907723 16.98237065 -14.63926774 14.17958817 -14 8 C-10.40966179 1.43834741 -7.51027645 -0.63646411 0 0 Z " fill="#112832" transform="translate(1114,727)"/>
<path d="M0 0 C3.41311667 2.52570633 4.66637768 3.99913304 6 8 C6.03954234 10.33299825 6.04401732 12.66708189 6 15 C5.34 15 4.68 15 4 15 C3.896875 15.5775 3.79375 16.155 3.6875 16.75 C2.86698226 19.43533079 1.91168557 20.93962778 0 23 C-4.01423329 24.00183103 -8.27439426 23.93527831 -11.953125 21.94140625 C-14.09983101 20.1854841 -15.75430096 18.49139807 -17 16 C-17.54528108 9.56568321 -16.68456777 6.31011237 -13 1 C-9.04352612 -0.97823694 -4.3017582 -0.56487734 0 0 Z " fill="#112833" transform="translate(1214,797)"/>
<path d="M0 0 C3.6104854 3.09470177 4.98887267 6.25287683 5.5625 10.9375 C5.0228149 15.16503328 3.36418769 17.56254065 0.5625 20.6875 C-3.16339422 22.55044711 -6.73522466 22.54483809 -10.8125 21.875 C-14.14850367 19.81661475 -15.6387176 18.1356736 -17.8125 14.875 C-18.11328125 12.53515625 -18.11328125 12.53515625 -18.125 9.9375 C-18.14175781 9.08285156 -18.15851562 8.22820313 -18.17578125 7.34765625 C-17.74254104 4.39882772 -16.78760094 3.06901607 -14.8125 0.875 C-10.44436234 -2.36065752 -4.81032763 -1.92413105 0 0 Z " fill="#10262F" transform="translate(1001.8125,879.125)"/>
<path d="M0 0 C3.09632649 2.43753362 4.82300487 4.73450731 7 8 C7.67116683 14.93539055 7.67116683 14.93539055 5.1875 18.875 C1.9094987 22.05934412 -0.29521463 23.34739117 -4.8125 23.5625 C-7.80117211 23.50123879 -9.48484535 23.34208698 -11.98828125 21.6796875 C-14.753046 18.73676368 -15.89046376 16.5476812 -16.6875 12.5625 C-15.80496365 7.98935712 -13.91120319 4.61694941 -11 1 C-7.52521979 -0.73739011 -3.79068864 -0.59680392 0 0 Z " fill="#00C4CC" transform="translate(1205,894)"/>
<path d="M0 0 C3.51347596 0.62250775 5.32135246 1.72468545 7.6015625 4.4609375 C8.4140625 6.2734375 8.4140625 6.2734375 8.6015625 8.4609375 C8.7253125 9.5746875 8.8490625 10.6884375 8.9765625 11.8359375 C8.49159658 16.52394139 6.97290751 18.23943005 3.6015625 21.4609375 C0.44115277 23.37381707 -1.2377372 23.46657611 -4.9609375 23.3359375 C-8.70963196 22.38172436 -10.03853192 21.45620228 -12.3984375 18.4609375 C-14.27211911 14.71357428 -13.91635762 10.54189847 -13.3984375 6.4609375 C-11.07030661 0.11148961 -6.0559094 -0.34278732 0 0 Z " fill="#112731" transform="translate(1006.3984375,775.5390625)"/>
<path d="M0 0 C3.16118708 1.63913404 5.26864575 3.00269875 7.375 5.875 C8.23855538 8.81108828 8.36658209 10.94514926 8 14 C5.96006092 17.6578218 4.49580738 19.66946174 1 22 C-2.41125792 22.60130648 -5.59317466 22.64115692 -9 22 C-11.86890102 19.8887997 -13.41311435 17.17377131 -15 14 C-15.59968751 8.72274989 -14.27164725 6.11292798 -11 2 C-7.29137017 -0.47241989 -4.30094385 -0.66668695 0 0 Z " fill="#122832" transform="translate(1111,826)"/>
<path d="M0 0 C0 9.96280742 -18.00285153 24.93450478 -24.59765625 32.3515625 C-26.15003804 34.17636784 -27.58041095 36.07070686 -29 38 C-29.66 37.67 -30.32 37.34 -31 37 C-29.96552734 35.78376953 -29.96552734 35.78376953 -28.91015625 34.54296875 C-24.39784606 29.22904472 -19.90075331 23.90709618 -15.5 18.5 C-10.42066278 12.25914465 -5.21311192 6.12906056 0 0 Z " fill="#31899B" transform="translate(1187,822)"/>
<path d="M0 0 C1 3 1 3 0.1796875 4.71875 C-3.4470006 9.6701565 -6.81010962 12.80091129 -13 14 C-15.08234592 14.06743348 -17.16668557 14.08514472 -19.25 14.0625 C-20.32765625 14.05347656 -21.4053125 14.04445313 -22.515625 14.03515625 C-23.33546875 14.02355469 -24.1553125 14.01195312 -25 14 C-25 13.67 -25 13.34 -25 13 C-23.7315625 12.88785156 -23.7315625 12.88785156 -22.4375 12.7734375 C-12.91202577 11.66934844 -7.75217304 9.31499899 -1.5 2.125 C-1.005 1.42375 -0.51 0.7225 0 0 Z " fill="#02BAC5" transform="translate(1221,916)"/>
<path d="M0 0 C0 0.33 0 0.66 0 1 C-1.5778125 1.0928125 -1.5778125 1.0928125 -3.1875 1.1875 C-7.6558147 2.13976379 -9.01105287 3.66945892 -12 7 C-12.66 7 -13.32 7 -14 7 C-14 9.97 -14 12.94 -14 16 C-14.33 16 -14.66 16 -15 16 C-15.08153933 14.41753293 -15.13943557 12.83383727 -15.1875 11.25 C-15.22230469 10.36828125 -15.25710938 9.4865625 -15.29296875 8.578125 C-14.94529826 5.51862471 -14.05036734 4.25138375 -12 2 C-8.31243116 -0.73153247 -4.39923878 -0.14664129 0 0 Z " fill="#296D7B" transform="translate(999,878)"/>
<path d="M0 0 C0 3.71705966 -0.9447434 4.53701604 -3.25 7.375 C-3.88550781 8.16519531 -4.52101563 8.95539062 -5.17578125 9.76953125 C-5.77777344 10.50558594 -6.37976562 11.24164062 -7 12 C-7.804375 13.010625 -8.60875 14.02125 -9.4375 15.0625 C-10.2109375 16.0215625 -10.2109375 16.0215625 -11 17 C-11.99 16.67 -12.98 16.34 -14 16 C-13.32453125 15.26394531 -12.6490625 14.52789063 -11.953125 13.76953125 C-11.05200228 12.78392827 -10.15096517 11.79824701 -9.25 10.8125 C-8.36828125 9.84957031 -7.4865625 8.88664063 -6.578125 7.89453125 C-4.29020637 5.32582261 -2.11918393 2.70839628 0 0 Z " fill="#307B8A" transform="translate(1187,822)"/>
<path d="M0 0 C-12.23665298 6.39784394 -12.23665298 6.39784394 -19 6 C-15.89579356 3.93052904 -12.9681325 2.67553856 -9.5 1.3125 C-8.3553125 0.85488281 -7.210625 0.39726563 -6.03125 -0.07421875 C-3 -1 -3 -1 0 0 Z " fill="#1E6F80" transform="translate(1025,865)"/>
<path d="M0 0 C0.33 0.99 0.66 1.98 1 3 C0.34 3.66 -0.32 4.32 -1 5 C-1.46162427 7.43252661 -1.46162427 7.43252661 -1.625 10.125 C-1.69976563 11.03507813 -1.77453125 11.94515625 -1.8515625 12.8828125 C-1.90054688 13.58148437 -1.94953125 14.28015625 -2 15 C-4 13 -4 13 -4.375 9.1875 C-4.29926621 5.02971502 -2.96605135 2.96605135 0 0 Z " fill="#2895AB" transform="translate(995,777)"/>
<path d="M0 0 C0.5775 0.226875 1.155 0.45375 1.75 0.6875 C0.6671875 1.30625 0.6671875 1.30625 -0.4375 1.9375 C-3.22969862 3.67486803 -5.72012585 5.59131857 -8.25 7.6875 C-6.86345583 3.41232214 -5.12511737 -0.71182186 0 0 Z " fill="#244E59" transform="translate(1109.25,727.3125)"/>
<path d="M0 0 C0.99 0.33 1.98 0.66 3 1 C1.37660195 2.70884005 -0.29319053 4.37446717 -2 6 C-2.66 6 -3.32 6 -4 6 C-2.84826645 3.53199953 -1.95216435 1.95216435 0 0 Z " fill="#15C1E3" transform="translate(1092,820)"/>
</svg>
