<?xml version="1.0" encoding="UTF-8"?>
<svg version="1.1" xmlns="http://www.w3.org/2000/svg" width="320" height="320">
<path d="M0 0 C105.6 0 211.2 0 320 0 C320 105.6 320 211.2 320 320 C214.4 320 108.8 320 0 320 C0 214.4 0 108.8 0 0 Z " fill="#0F222D" transform="translate(0,0)"/>
<path d="M0 0 C4.803436 3.3632098 8.11001467 7.79978763 11.33203125 12.6328125 C11.55908203 14.53393555 11.55908203 14.53393555 11.52734375 16.64453125 C11.51767578 17.78051758 11.51767578 17.78051758 11.5078125 18.93945312 C11.48267578 20.11797852 11.48267578 20.11797852 11.45703125 21.3203125 C11.44800781 22.11759766 11.43898437 22.91488281 11.4296875 23.73632812 C11.4061471 25.7019515 11.37027672 27.66742025 11.33203125 29.6328125 C12.21375 29.89578125 13.09546875 30.15875 14.00390625 30.4296875 C17.26547576 31.60875254 19.69265351 32.98407856 22.58203125 34.8828125 C29.25700836 39.15027037 36.2164718 42.84977147 43.20703125 46.5703125 C50.55327408 50.48351742 57.85457282 54.41504424 64.95703125 58.7578125 C72.84242803 64.26748468 72.84242803 64.26748468 81.76953125 66.5703125 C83.28247516 66.01679644 84.79039659 65.44854963 86.28515625 64.84765625 C93.70097294 62.06024264 100.19587835 61.99185918 107.51953125 65.2578125 C114.1816134 68.99343346 119.22595677 74.19960846 121.33203125 81.6328125 C122.89463744 91.83758762 118.8364706 98.37615348 113.33203125 106.6328125 C111.68651163 107.35009028 110.01780836 108.01606478 108.33203125 108.6328125 C106.84703125 109.6228125 106.84703125 109.6228125 105.33203125 110.6328125 C104.34203125 110.6328125 103.35203125 110.6328125 102.33203125 110.6328125 C102.33203125 130.1028125 102.33203125 149.5728125 102.33203125 169.6328125 C103.98203125 169.9628125 105.63203125 170.2928125 107.33203125 170.6328125 C109.9375 172.59375 109.9375 172.59375 112.51953125 175.0078125 C113.37933594 175.79929688 114.23914063 176.59078125 115.125 177.40625 C119.28409344 181.60214958 119.28409344 181.60214958 119.45703125 185.3203125 C119.41578125 186.0834375 119.37453125 186.8465625 119.33203125 187.6328125 C119.99203125 187.6328125 120.65203125 187.6328125 121.33203125 187.6328125 C121.88642501 196.36451416 119.98894898 202.51677585 114.58203125 209.4453125 C108.99535885 215.37684122 103.96841557 216.88827913 95.83203125 217.1953125 C89.33687213 216.98911697 85.00370272 216.25115439 80.33203125 211.6328125 C74.20897756 204.88769558 70.91074994 199.36380471 71.0625 190.1484375 C71.4528968 186.50473404 72.64392763 183.86834444 74.33203125 180.6328125 C73.62280518 180.36799072 72.9135791 180.10316895 72.18286133 179.83032227 C69.20073314 178.57765987 66.51231285 177.10205897 63.71875 175.47265625 C62.64310791 174.8480249 61.56746582 174.22339355 60.45922852 173.57983398 C59.32412842 172.91669189 58.18902832 172.2535498 57.01953125 171.5703125 C54.66886621 170.20418123 52.31679279 168.8404817 49.96484375 167.4765625 C48.82563477 166.81527344 47.68642578 166.15398437 46.51269531 165.47265625 C42.48834538 163.14478543 38.4486627 160.84585398 34.39453125 158.5703125 C33.76844971 158.2187207 33.14236816 157.86712891 32.49731445 157.50488281 C27.89180556 154.92783561 23.25148326 152.41763457 18.6015625 149.921875 C16.59225525 148.78061615 14.7586528 147.55524237 12.89453125 146.1953125 C10.53875578 144.4538537 10.53875578 144.4538537 8.26953125 144.6328125 C6.1416295 145.65053297 6.1416295 145.65053297 3.83203125 147.6328125 C-1.39904171 151.81767087 -8.24644328 151.23380142 -14.66796875 150.6328125 C-18.8776972 149.32236477 -21.8507361 147.47274605 -24.91796875 144.3203125 C-25.49546875 143.7634375 -26.07296875 143.2065625 -26.66796875 142.6328125 C-30.00228313 143.07361249 -32.72333494 144.58320709 -35.66796875 146.14453125 C-37.11441772 146.90648804 -37.11441772 146.90648804 -38.59008789 147.68383789 C-40.11363892 148.49389282 -40.11363892 148.49389282 -41.66796875 149.3203125 C-43.74961096 150.41740515 -45.83163848 151.51376705 -47.9140625 152.609375 C-49.40848877 153.39683105 -49.40848877 153.39683105 -50.93310547 154.20019531 C-55.80749951 156.75357366 -60.73198532 159.20093774 -65.66796875 161.6328125 C-69.89916 163.71665905 -69.89916 163.71665905 -73.98046875 166.0703125 C-76.31180281 167.42573928 -78.57431031 168.50097822 -81.04296875 169.5703125 C-83.8983858 170.80892056 -86.61255982 172.11362975 -89.29296875 173.6953125 C-92.70128877 175.65194066 -96.04036861 177.1390948 -99.66796875 178.6328125 C-100.32796875 178.9628125 -100.98796875 179.2928125 -101.66796875 179.6328125 C-101.51199219 180.30828125 -101.35601562 180.98375 -101.1953125 181.6796875 C-99.82965156 189.32738877 -98.93054935 197.99207588 -103.29296875 204.7578125 C-107.88312246 210.49011713 -113.626994 216.06754191 -121.2109375 216.91796875 C-130.19951735 217.2031237 -135.83540337 215.63924964 -142.48046875 209.5078125 C-148.26316405 203.30564708 -149.9762019 198.06252785 -149.73046875 189.6328125 C-148.835969 182.00039616 -145.19775036 176.6832663 -139.54296875 171.6328125 C-136.97097973 169.84360275 -135.61770003 169.24048246 -132.66796875 168.6328125 C-132.45907826 160.52255621 -132.29935281 152.41343004 -132.2016592 144.30114555 C-132.15475985 140.53377914 -132.09120379 136.76825756 -131.98901367 133.00195312 C-131.89093633 129.3643 -131.83735653 125.7284159 -131.81407356 122.08954239 C-131.7974922 120.70425685 -131.76510677 119.31906422 -131.71639824 117.93453598 C-131.57309064 113.69074788 -131.56885412 109.74832363 -132.66796875 105.6328125 C-134.77694535 103.37703778 -136.66246953 102.14449753 -139.43104553 100.80032349 C-143.11812288 98.87593767 -144.59541198 96.17621602 -146.66796875 92.6328125 C-146.66796875 91.6428125 -146.66796875 90.6528125 -146.66796875 89.6328125 C-147.32796875 89.6328125 -147.98796875 89.6328125 -148.66796875 89.6328125 C-149.33166338 71.9097078 -149.33166338 71.9097078 -142.15234375 64.0546875 C-137.03505339 59.152862 -133.00005029 57.28952253 -125.79296875 57.0078125 C-119.87664617 57.19170677 -115.81732823 58.46103841 -110.8515625 61.63671875 C-107.95661616 62.95731145 -106.67592583 62.59771439 -103.66796875 61.6328125 C-101.66232018 60.73121543 -99.68353353 59.76827845 -97.73046875 58.7578125 C-96.73144531 58.24476562 -95.73242188 57.73171875 -94.703125 57.203125 C-93.20072266 56.42582031 -93.20072266 56.42582031 -91.66796875 55.6328125 C-90.70503906 55.15457031 -89.74210937 54.67632812 -88.75 54.18359375 C-85.23116887 52.41302853 -81.76255996 50.55988671 -78.29296875 48.6953125 C-75.75256282 47.338773 -73.21050177 45.98536021 -70.66796875 44.6328125 C-69.79398437 44.16746094 -68.92 43.70210937 -68.01953125 43.22265625 C-63.02549563 40.6328125 -63.02549563 40.6328125 -59.66796875 40.6328125 C-59.66796875 39.6428125 -59.66796875 38.6528125 -59.66796875 37.6328125 C-58.71921875 37.2615625 -57.77046875 36.8903125 -56.79296875 36.5078125 C-51.79949375 34.37645122 -47.2775385 31.4785919 -42.66796875 28.6328125 C-41.75144531 28.20226562 -40.83492188 27.77171875 -39.890625 27.328125 C-37.36920022 25.80222228 -37.36920022 25.80222228 -37.171875 22.8125 C-37.19121094 21.72195312 -37.21054688 20.63140625 -37.23046875 19.5078125 C-36.9349655 12.69608364 -35.43037376 8.54342513 -30.66796875 3.6328125 C-21.16468687 -4.14409465 -11.07148842 -6.10239519 0 0 Z " fill="#0BCFF6" transform="translate(188.66796875,39.3671875)"/>
<path d="M0 0 C1.82885835 1.18715366 3.50178677 2.50139693 5.21875 3.84375 C9.59399589 6.68382189 14.96315869 6.49264215 20 6 C23.70291955 4.905471 26.78641936 3.14238709 30 1 C34.47124347 1.32158321 37.86323921 2.69871059 41.8125 4.75 C42.84503906 5.28367187 43.87757813 5.81734375 44.94140625 6.3671875 C48.98973445 8.52836399 53.01428361 10.72532348 57 13 C57 13.66 57 14.32 57 15 C57.639375 15.226875 58.27875 15.45375 58.9375 15.6875 C61.54218744 16.80379462 63.86223411 18.03008084 66.3125 19.4375 C70.43401148 21.77486725 74.52530708 23.45419699 79 25 C79 25.66 79 26.32 79 27 C79.86625 27.2475 80.7325 27.495 81.625 27.75 C84.5233207 28.82345211 86.64457499 30.01184396 89.14453125 31.78125 C93.25109558 34.47861436 97.66859579 36.68786252 102 39 C101.97679687 40.08539063 101.95359375 41.17078125 101.9296875 42.2890625 C101.9109173 43.73436807 101.89271844 45.17968115 101.875 46.625 C101.84986328 47.69427734 101.84986328 47.69427734 101.82421875 48.78515625 C101.78315398 53.2612164 102.30913433 56.77949278 104 61 C104.66 61 105.32 61 106 61 C106 64 106 64 103.83984375 66.2109375 C102.90269531 67.13132812 101.96554687 68.05171875 101 69 C99.08171908 71.46870689 97.32868097 74.04605259 95.5625 76.625 C90.35098347 84.12805832 84.98693145 91.50479597 79.54516602 98.84228516 C78.98112061 99.60331543 78.4170752 100.3643457 77.8359375 101.1484375 C77.33626465 101.82052246 76.8365918 102.49260742 76.32177734 103.18505859 C75.17388669 104.76123501 74.08159214 106.37761179 73 108 C69.57435248 107.44095336 66.98517454 106.63578654 64 104.875 C58.97505312 101.96849616 53.85683198 99.25898389 48.72265625 96.55078125 C46 95 46 95 44 93 C43.79812371 90.7764769 43.6866655 88.54431684 43.625 86.3125 C43.16572592 78.56818882 41.68866567 75.11319183 36.625 69.25 C29.88168956 63.47001962 23.60525106 63.23472904 15.15234375 63.52734375 C8.56603941 64.05785379 4.7315579 66.94987331 0.42578125 71.7578125 C-2.58571191 75.88243636 -3.0958994 78.94173888 -3.3125 84 C-3.69211823 87.21655016 -4.04564178 89.21892477 -6.61083984 91.31835938 C-11.19689997 94.14296826 -17.54910472 98 -23 98 C-23.19464844 98.58523437 -23.38929688 99.17046875 -23.58984375 99.7734375 C-25.57295014 102.90465812 -28.31498818 104.08162384 -31.5625 105.625 C-32.18930664 105.93348877 -32.81611328 106.24197754 -33.46191406 106.55981445 C-37.01877969 108.2528423 -40.37758046 109.48629516 -44.25 110.1875 C-46.10625 110.5896875 -46.10625 110.5896875 -48 111 C-48.27457031 111.60972656 -48.54914063 112.21945313 -48.83203125 112.84765625 C-50.59711492 116.10036897 -53.10809313 116.78016152 -56.4375 118.25 C-57.59121094 118.77078125 -58.74492188 119.2915625 -59.93359375 119.828125 C-63 121 -63 121 -66 121 C-66 121.66 -66 122.32 -66 123 C-68 124 -70 125 -72 126 C-72.92232422 126.53947266 -72.92232422 126.53947266 -73.86328125 127.08984375 C-78.91779083 129.93617079 -83.20897631 130.77298128 -89 130 C-90.78610428 128.21389572 -90.16483104 125.56651714 -90.19287109 123.15087891 C-90.20893402 121.89933014 -90.22499695 120.64778137 -90.24154663 119.35830688 C-90.25303199 117.98106562 -90.26364089 116.60381681 -90.2734375 115.2265625 C-90.27876118 114.5361726 -90.28408485 113.8457827 -90.28956985 113.13447189 C-90.31631565 109.48060973 -90.33568623 105.82678191 -90.35009766 102.17285156 C-90.36675363 98.3938749 -90.41153322 94.61576907 -90.4624691 90.83712196 C-90.49608584 87.93579072 -90.50766878 85.03466759 -90.51332474 82.13315964 C-90.52005241 80.74002804 -90.5353141 79.34691085 -90.55921555 77.95396805 C-90.59074212 76.00552032 -90.58791144 74.05660793 -90.58349609 72.10791016 C-90.59158295 70.99839996 -90.5996698 69.88888977 -90.60800171 68.74575806 C-90 66 -90 66 -87.58853149 64.13778687 C-85 63 -85 63 -83 62.6875 C-78.37720387 61.09841383 -75.16325963 55.16808334 -73 51 C-72.46561514 48.05348196 -72.46561514 48.05348196 -72.375 45 C-72.2678018 42.99896688 -72.14352768 40.99875581 -72 39 C-72.00580078 37.73542969 -72.00580078 37.73542969 -72.01171875 36.4453125 C-70.28011492 32.26004609 -66.32282557 30.8868788 -62.4375 28.875 C-61.65052734 28.44574219 -60.86355469 28.01648438 -60.05273438 27.57421875 C-56.31819723 25.57302407 -52.61108326 23.78464062 -48.62890625 22.33203125 C-45.83078331 21.30494845 -43.91892071 20.41532157 -41.5 18.8125 C-37.03190658 15.89473919 -32.28998533 13.58396945 -27.50488281 11.24365234 C-23.73105877 9.38992064 -20.00706828 7.47857524 -16.32421875 5.44921875 C-15.55972412 5.0305957 -14.79522949 4.61197266 -14.00756836 4.18066406 C-12.52761929 3.36570779 -11.05291323 2.54114044 -9.58422852 1.70605469 C-3.92437478 -1.39482623 -3.92437478 -1.39482623 0 0 Z " fill="#0F232E" transform="translate(160,79)"/>
<path d="M0 0 C1.32 0.33 2.64 0.66 4 1 C4 20.47 4 39.94 4 60 C-1.87663626 62.3506545 -1.87663626 62.3506545 -6 61 C-8.83661314 59.72147397 -11.5740944 58.28817805 -14.3125 56.8125 C-15.06781006 56.40974854 -15.82312012 56.00699707 -16.60131836 55.59204102 C-21.77028678 52.78820119 -26.4647217 49.76331604 -31 46 C-30.6875 44.0625 -30.6875 44.0625 -30 42 C-28.515 41.505 -28.515 41.505 -27 41 C-25.95796985 39.17750736 -25.95796985 39.17750736 -25 37 C-23.9397276 35.44238334 -22.85411042 33.9018554 -21.75 32.375 C-18.67904945 28.0628736 -15.95665121 23.64214484 -13.359375 19.03125 C-12 17 -12 17 -9 15 C-8.30619125 13.34444824 -7.64325269 11.67584253 -7 10 C-5.83766335 8.19864117 -4.62763815 6.42727521 -3.375 4.6875 C-2.74335938 3.80449219 -2.11171875 2.92148438 -1.4609375 2.01171875 C-0.97882813 1.34785156 -0.49671875 0.68398437 0 0 Z " fill="#102632" transform="translate(275,149)"/>
<path d="M0 0 C3.58922531 1.34595949 4.64627282 2.48770546 6.8125 5.625 C8.31540319 9.89640908 8.87239277 13.52598571 8 18 C6.03539927 21.54531397 3.3642908 23.75713946 0 26 C-5.07663103 26.68538504 -10.22413498 27.02826469 -14.5625 24 C-15.366875 23.34 -16.17125 22.68 -17 22 C-17.66 22 -18.32 22 -19 22 C-19.08150744 19.93816367 -19.1394194 17.87538651 -19.1875 15.8125 C-19.22230469 14.66394531 -19.25710937 13.51539063 -19.29296875 12.33203125 C-18.88136245 7.65069563 -17.0103265 5.16819002 -14 1.6875 C-9.43151185 -0.88227458 -5.12311842 -0.62495872 0 0 Z " fill="#09D2FC" transform="translate(29,257)"/>
<path d="M0 0 C3.92500436 2.30839774 6.55088018 4.65264053 8 9 C8.43315845 14.6310599 7.59184754 18.10428798 5 23 C1.47960293 25.34693138 -0.20057009 25.32723764 -4.375 25.375 C-6.05722656 25.41753906 -6.05722656 25.41753906 -7.7734375 25.4609375 C-11.66035128 24.9056641 -13.2220541 23.71904952 -16 21 C-18.96728856 16.54906717 -18.75636001 12.21812008 -18 7 C-13.4555742 0.81453155 -7.49519588 -1.47384524 0 0 Z " fill="#0588B1" transform="translate(290,114)"/>
<path d="M0 0 C2.95596003 2.04643386 4.42431751 3.25220774 6.25 6.25 C6.99084808 10.71687814 6.72544717 14.93552842 5.1875 19.1875 C1.93629888 22.64845603 -1.35266515 24.07072105 -5.99609375 24.41796875 C-9.95103785 24.23789541 -13.13566641 23.49008039 -16.3125 21.0625 C-19.92574976 16.88945098 -19.69305678 11.75944565 -19.46484375 6.48828125 C-18.68253111 2.94436223 -18.14934217 1.8784293 -15.1875 -0.125 C-9.79593612 -2.52652405 -5.26987552 -2.77303722 0 0 Z " fill="#02A9DB" transform="translate(70.75,109.75)"/>
<path d="M0 0 C3.68223279 2.10413302 5.43545068 4.11607492 7 8 C7.23046875 10.7265625 7.23046875 10.7265625 7.1875 13.625 C7.18105469 14.58664063 7.17460937 15.54828125 7.16796875 16.5390625 C7 19 7 19 6 21 C1.34789543 24.29524074 -2.11928956 25.67039779 -7.8515625 25.38671875 C-11.32392164 24.7616941 -13.40956686 23.33770795 -16 21 C-18.80606313 16.66335699 -19.00031359 10.97775096 -18 6 C-13.99816822 -0.71830699 -7.16329886 -1.306444 0 0 Z " fill="#03A0D0" transform="translate(181,48)"/>
<path d="M0 0 C5.62179487 3.3219697 5.62179487 3.3219697 6.4375 5.25 C6.89471421 8.724828 6.80840231 12.12086168 6.75 15.625 C5.76 15.295 4.77 14.965 3.75 14.625 C3.75 12.645 3.75 10.665 3.75 8.625 C2.45366379 9.69145115 2.45366379 9.69145115 2.6875 12.1875 C2.708125 12.991875 2.72875 13.79625 2.75 14.625 C2.09 14.625 1.43 14.625 0.75 14.625 C1.0903125 15.73875 1.0903125 15.73875 1.4375 16.875 C1.75 19.625 1.75 19.625 0.875 21.9375 C-2.04980798 24.26014163 -4.23320072 24.18493015 -7.89453125 24.01171875 C-11.82242779 23.36684021 -14.05828565 22.03507002 -17.25 19.625 C-19.92626005 15.55243037 -19.82677173 10.36640292 -19.25 5.625 C-17.961642 2.20376225 -17.42884537 1.72318962 -14.0625 -0.125 C-9.06807255 -2.01086265 -4.9625034 -2.09952067 0 0 Z " fill="#07ACDC" transform="translate(70.25,220.375)"/>
<path d="M0 0 C3 1.125 3 1.125 5 3 C5.8125 6.1875 5.8125 6.1875 6 9 C6.66 9 7.32 9 8 9 C9.125 13.75 9.125 13.75 8 16 C6.68 16 5.36 16 4 16 C4.3403125 16.86625 4.3403125 16.86625 4.6875 17.75 C5 20 5 20 3.8984375 22.1171875 C2 24 2 24 -0.84765625 24.4609375 C-1.90855469 24.43257812 -2.96945313 24.40421875 -4.0625 24.375 C-5.65771484 24.35566406 -5.65771484 24.35566406 -7.28515625 24.3359375 C-10 24 -10 24 -12 22 C-14.06874034 21.3574765 -14.06874034 21.3574765 -16 21 C-18.79802956 12.25615764 -18.79802956 12.25615764 -18 8 C-12.67650508 1.25875969 -8.49590256 -0.79236397 0 0 Z " fill="#06B1E1" transform="translate(184,154)"/>
<path d="M0 0 C2.875 1.75 2.875 1.75 5 4 C5.763125 4.53625 6.52625 5.0725 7.3125 5.625 C9.65029333 8.91522764 9.73482276 11.54010368 9.59375 15.51953125 C8.71313423 19.1984195 6.79083307 20.74598727 3.82421875 22.94140625 C0.56648012 24.83187128 -2.24463888 25.1833619 -5.9375 25.25 C-6.79214844 25.27578125 -7.64679688 25.3015625 -8.52734375 25.328125 C-11.49446076 24.93438435 -12.85250948 24.05282157 -15 22 C-15 20 -15 20 -12.5 17.375 C-9.93693666 15.31604628 -8.16385041 14.63024785 -4.875 14.5625 C-1.51945963 14.94135133 0.17320743 15.36915813 3 17 C3.66 16.67 4.32 16.34 5 16 C5 14.02 5 12.04 5 10 C2.75637427 9.7715451 2.75637427 9.7715451 0.875 12 C0.25625 12.66 -0.3625 13.32 -1 14 C-1.66 13.34 -2.32 12.68 -3 12 C-6.66226912 12.39238598 -9.77780124 14.31566883 -13 16 C-13 14.02 -13 12.04 -13 10 C-13.99 10.495 -13.99 10.495 -15 11 C-15.40729228 13.32156597 -15.74438677 15.6568787 -16 18 C-18.80541099 13.79188352 -17.85569482 11.90079759 -17 7 C-16.67 6.34 -16.34 5.68 -16 5 C-15.34 5 -14.68 5 -14 5 C-13.566875 4.0409375 -13.566875 4.0409375 -13.125 3.0625 C-10.5926467 -1.58014772 -4.64578274 -0.53576957 0 0 Z " fill="#149BBC" transform="translate(290,219)"/>
<path d="M0 0 C9.76827372 -0.46189736 9.76827372 -0.46189736 14 1.125 C17.1925313 4.11799809 18.8122876 6.94198949 19.21484375 11.35546875 C19.24693564 13.59833507 19.2441277 15.76998739 19 18 C18 19 18 19 15.4375 19.0625 C14.633125 19.041875 13.82875 19.02125 13 19 C12.67 18.01 12.34 17.02 12 16 C5.95268479 14.88460631 2.46536065 14.74680914 -3 18 C-3.99 18 -4.98 18 -6 18 C-6 14.7 -6 11.4 -6 8 C-3.02588876 6.76078698 -0.14737182 5.69941596 3 5 C1.625 6.5 1.625 6.5 0 8 C-0.66 8 -1.32 8 -2 8 C-2.33 10.31 -2.66 12.62 -3 15 C1.23084903 13.31192092 1.23084903 13.31192092 4 10 C5.32 10.33 6.64 10.66 8 11 C8 11.66 8 12.32 8 13 C8.99 12.67 9.98 12.34 11 12 C10.67 10.02 10.34 8.04 10 6 C12.475 6.495 12.475 6.495 15 7 C13.29042423 4.04873235 12.42407102 3.12035215 9.08203125 2.171875 C7.46361328 1.96304687 7.46361328 1.96304687 5.8125 1.75 C4.72582031 1.60046875 3.63914062 1.4509375 2.51953125 1.296875 C1.68808594 1.19890625 0.85664063 1.1009375 0 1 C0 0.67 0 0.34 0 0 Z " fill="#03C9FE" transform="translate(18,257)"/>
<path d="M0 0 C3.04889927 2.30727513 4.45738189 4.20167325 5 8 C0.37797121 11.91094744 0.37797121 11.91094744 -3.296875 12.1484375 C-7.64036926 11.76518801 -10.08088481 11.41953494 -13 8 C-12.06601394 4.85841051 -11.33205059 3.2674852 -8.75 1.1875 C-5.49491337 -0.21810559 -3.50947271 -0.52268743 0 0 Z " fill="#102B37" transform="translate(68,122)"/>
<path d="M0 0 C2.94012406 1.20858855 4.31314818 3.17876066 5.9765625 5.8125 C4.87890625 7.77734375 4.87890625 7.77734375 2.9765625 9.8125 C-0.01953125 10.37890625 -0.01953125 10.37890625 -3.4609375 10.375 C-4.59402344 10.39691406 -5.72710937 10.41882813 -6.89453125 10.44140625 C-10.0234375 9.8125 -10.0234375 9.8125 -12.43359375 7.27734375 C-12.95824219 6.46394531 -13.48289062 5.65054688 -14.0234375 4.8125 C-6.37766205 -1.66978788 -6.37766205 -1.66978788 0 0 Z " fill="#112B37" transform="translate(289.0234375,129.1875)"/>
<path d="M0 0 C2.3745256 1.45892463 4.00659124 3.00659124 6 5 C3.375 8.875 3.375 8.875 0 10 C-1.64176695 10.14252401 -3.28982655 10.22026755 -4.9375 10.25 C-6.21947266 10.28867188 -6.21947266 10.28867188 -7.52734375 10.328125 C-10.49446076 9.93438435 -11.85250948 9.05282157 -14 7 C-14 5 -14 5 -11.5 2.375 C-7.84912923 -0.51814288 -4.52123791 -1.16619232 0 0 Z " fill="#0F2733" transform="translate(289,234)"/>
<path d="M0 0 C2.99491617 1.05322199 3.67718977 1.67396782 5.6875 4.3125 C6.0175 5.09625 6.3475 5.88 6.6875 6.6875 C5.55859375 8.65234375 5.55859375 8.65234375 3.6875 10.6875 C-0.35432097 11.51178135 -4.25083803 11.36537738 -8.3125 10.6875 C-11.0625 8.1875 -11.0625 8.1875 -12.3125 5.6875 C-5.12935341 -1.0753561 -5.12935341 -1.0753561 0 0 Z " fill="#12303D" transform="translate(182.3125,167.3125)"/>
<path d="M0 0 C0 0.99 0 1.98 0 3 C0.66 3.33 1.32 3.66 2 4 C-1.04972391 7.1481021 -3.25310636 8.31660942 -7.5625 8.4375 C-11.21507358 8.28530943 -13.38660835 7.72701737 -16 5 C-14.75023244 1.34683329 -14.32901247 0.21934164 -11 -2 C-6.42839603 -3.60623923 -4.08598819 -2.37557453 0 0 Z " fill="#102935" transform="translate(183,65)"/>
<path d="M0 0 C2.125 1.6875 2.125 1.6875 3 4 C2.33228817 6.39263407 1.77902615 8.22097385 0 10 C-4.61733357 10.59296284 -8.62051477 10.66885603 -12.5625 8 C-13.366875 7.34 -14.17125 6.68 -15 6 C-14.01 5.67 -13.02 5.34 -12 5 C-12 4.01 -12 3.02 -12 2 C-8.05491442 -0.63005705 -4.58314214 -0.43648973 0 0 Z " fill="#122F3B" transform="translate(69,234)"/>
<path d="M0 0 C2.375 1 2.375 1 4 2 C4 2.99 4 3.98 4 5 C5.32 5 6.64 5 8 5 C8.33 4.01 8.66 3.02 9 2 C9 4.64 9 7.28 9 10 C4.73677629 10.36541918 2.45820536 9.49759276 -1 7 C-1.33 6.34 -1.66 5.68 -2 5 C-2.66 5 -3.32 5 -4 5 C-4.61875 5.639375 -5.2375 6.27875 -5.875 6.9375 C-8.03520783 9.03417231 -9.08776721 9.58396674 -12 10 C-12.25 7.75 -12.25 7.75 -12 5 C-8.27061948 0.52474338 -5.76374024 -0.34582441 0 0 Z " fill="#0D2D3B" transform="translate(179,54)"/>
<path d="M0 0 C2.375 1 2.375 1 4 2 C3.625 4.4375 3.625 4.4375 3 7 C2.01 7.495 2.01 7.495 1 8 C0.34 7.67 -0.32 7.34 -1 7 C-1 6.01 -1 5.02 -1 4 C-4.05953577 4.74648012 -4.05953577 4.74648012 -5.75 6.9375 C-8.6136266 9.56249105 -11.26033234 10.13699977 -15 11 C-15 8.03 -15 5.06 -15 2 C-14.2575 2.226875 -13.515 2.45375 -12.75 2.6875 C-7.97002036 3.2306795 -5.50195719 -0.57312054 0 0 Z " fill="#0E2835" transform="translate(288,120)"/>
<path d="M0 0 C3.22496917 1.80598274 4.562675 2.78894616 5.8125 6.25 C5.874375 6.8275 5.93625 7.405 6 8 C-0.75 6.375 -0.75 6.375 -3 3 C-3.99 3 -4.98 3 -6 3 C-6.4125 3.474375 -6.825 3.94875 -7.25 4.4375 C-9.87524834 6.78147173 -12.58502942 6.67783296 -16 7 C-15.67 9.97 -15.34 12.94 -15 16 C-15.99 16 -16.98 16 -18 16 C-19.02686139 7.75251011 -19.02686139 7.75251011 -16.828125 4 C-11.99286689 -0.78920803 -6.50587969 -1.18471266 0 0 Z " fill="#13303C" transform="translate(181,48)"/>
<path d="M0 0 C0.33 0.66 0.66 1.32 1 2 C1.66 2 2.32 2 3 2 C3.33 1.34 3.66 0.68 4 0 C4 2.31 4 4.62 4 7 C4.9075 6.319375 5.815 5.63875 6.75 4.9375 C10 3 10 3 12.1875 3.25 C13.0846875 3.62125 13.0846875 3.62125 14 4 C14.99 4 15.98 4 17 4 C17.66 2.68 18.32 1.36 19 0 C19 0.66 19 1.32 19 2 C19.66 2 20.32 2 21 2 C21.33 1.34 21.66 0.68 22 0 C22 3.63 22 7.26 22 11 C21.67 10.34 21.34 9.68 21 9 C20.34 9 19.68 9 19 9 C18.67 9.66 18.34 10.32 18 11 C17.67 10.505 17.34 10.01 17 9.5 C13.92391386 7.19293539 10.72521439 7.60945333 7 8 C6.01 8.33 5.02 8.66 4 9 C3.67 9.99 3.34 10.98 3 12 C2.01 12.33 1.02 12.66 0 13 C-1.23800991 9.28597026 -0.6155489 6.83008202 0 3 C0 2.01 0 1.02 0 0 Z " fill="#03A1D0" transform="translate(274,227)"/>
<path d="M0 0 C2.62950732 2.32610263 2.3763549 5.08079111 2.625 8.4375 C1.965 8.4375 1.305 8.4375 0.625 8.4375 C0.295 7.7775 -0.035 7.1175 -0.375 6.4375 C-1.365 6.4375 -2.355 6.4375 -3.375 6.4375 C-3.705 5.7775 -4.035 5.1175 -4.375 4.4375 C-5.365 4.1075 -6.355 3.7775 -7.375 3.4375 C-7.601875 4.076875 -7.82875 4.71625 -8.0625 5.375 C-9.375 7.4375 -9.375 7.4375 -12 8.1875 C-12.78375 8.27 -13.5675 8.3525 -14.375 8.4375 C-13.8902439 1.89329268 -13.8902439 1.89329268 -11.75 0 C-7.7190308 -0.95470323 -4.0309692 -0.95470323 0 0 Z " fill="#0D2E3D" transform="translate(70.375,114.5625)"/>
<path d="M0 0 C3 1.3125 3 1.3125 5 3 C5.33 3.99 5.66 4.98 6 6 C3.125 5.6875 3.125 5.6875 0 5 C-0.66 4.01 -1.32 3.02 -2 2 C-2.99 2 -3.98 2 -5 2 C-5.928125 2.9590625 -5.928125 2.9590625 -6.875 3.9375 C-9.28839022 6.27990815 -10.7163874 6.63515416 -14 7 C-14 9.64 -14 12.28 -14 15 C-14.99 15.33 -15.98 15.66 -17 16 C-18.49986273 13.00027454 -18.5048832 11.34485121 -18 8 C-12.74717172 1.26207891 -8.44533133 -0.83140568 0 0 Z " fill="#15323E" transform="translate(184,154)"/>
<path d="M0 0 C2.375 1.5 2.375 1.5 4 3 C3.67 4.32 3.34 5.64 3 7 C1.68 7 0.36 7 -1 7 C-1 6.34 -1 5.68 -1 5 C-2.32 5 -3.64 5 -5 5 C-5.33 5.99 -5.66 6.98 -6 8 C-9.0625 9.1875 -9.0625 9.1875 -12 10 C-12.375 7.8125 -12.375 7.8125 -12 5 C-8.2173251 0.94713404 -5.74825041 -0.99969572 0 0 Z " fill="#0D2D3C" transform="translate(183,159)"/>
<path d="M0 0 C0.66 0.33 1.32 0.66 2 1 C1.67 2.98 1.34 4.96 1 7 C0.01 6.67 -0.98 6.34 -2 6 C-2 5.34 -2 4.68 -2 4 C-3.32 4 -4.64 4 -6 4 C-6.33 4.99 -6.66 5.98 -7 7 C-10.0625 8.1875 -10.0625 8.1875 -13 9 C-12.63774912 2.60023447 -12.63774912 2.60023447 -9.875 0 C-6.19974309 -1.27835023 -3.76027054 -0.85138201 0 0 Z " fill="#0E2A38" transform="translate(69,226)"/>
<path d="M0 0 C0.66 0.33 1.32 0.66 2 1 C1.67 2.65 1.34 4.3 1 6 C-2 6 -2 6 -3.8125 5.25 C-7.32558362 4.84850473 -9.25783026 6.98907552 -12 9 C-12.33 9 -12.66 9 -13 9 C-12.63774912 2.60023447 -12.63774912 2.60023447 -9.875 0 C-6.19974309 -1.27835023 -3.76027054 -0.85138201 0 0 Z " fill="#0E2835" transform="translate(290,226)"/>
<path d="M0 0 C2.57351633 1.40993053 3.96168913 2.80489599 6 5 C6 5.66 6 6.32 6 7 C2.625 6.6875 2.625 6.6875 -1 6 C-1.66 5.01 -2.32 4.02 -3 3 C-3.99 3 -4.98 3 -6 3 C-6.4125 3.474375 -6.825 3.94875 -7.25 4.4375 C-9.87524834 6.78147173 -12.58502942 6.67783296 -16 7 C-12.37932074 0.12070941 -7.50918281 -1.30989199 0 0 Z " fill="#1B4350" transform="translate(290,114)"/>
<path d="M0 0 C3.125 1.8125 3.125 1.8125 5 4 C5 4.99 5 5.98 5 7 C2.125 6.6875 2.125 6.6875 -1 6 C-1.66 5.01 -2.32 4.02 -3 3 C-3.99 3 -4.98 3 -6 3 C-6.928125 3.99 -6.928125 3.99 -7.875 5 C-10 7 -10 7 -12.75 7.25 C-13.4925 7.1675 -14.235 7.085 -15 7 C-12.3628458 -0.70860458 -7.4088272 -0.97919213 0 0 Z " fill="#103B4A" transform="translate(290,219)"/>
<path d="M0 0 C2.625 1.75 2.625 1.75 3.5 3.9375 C3.54125 4.535625 3.5825 5.13375 3.625 5.75 C-0.14754453 5.24019669 -1.82487123 4.54299818 -4.375 1.75 C-5.035 1.75 -5.695 1.75 -6.375 1.75 C-6.74625 2.20375 -7.1175 2.6575 -7.5 3.125 C-10.42441863 5.65949614 -13.61901816 5.94954485 -17.375 6.75 C-16.17118552 4.25638429 -14.92071278 2.06856917 -13.375 -0.25 C-8.57305182 -1.85064939 -4.75126514 -1.75972783 0 0 Z " fill="#11303D" transform="translate(70.375,220.25)"/>
<path d="M0 0 C0 3.47239605 -0.64299984 4.30997361 -2.578125 7.10546875 C-3.12662109 7.90130371 -3.67511719 8.69713867 -4.24023438 9.51708984 C-7.61272149 14.27544084 -11.04329356 18.98916473 -14.49609375 23.68945312 C-15.04910156 24.44806641 -15.60210937 25.20667969 -16.171875 25.98828125 C-16.6678418 26.66415283 -17.16380859 27.34002441 -17.67480469 28.03637695 C-19.04648113 29.97547549 -19.04648113 29.97547549 -20.05957031 32.13354492 C-21.28796828 34.57152583 -23.07212067 36.07212067 -25 38 C-26.36821051 39.97630407 -27.70951192 41.97209016 -29 44 C-29.66 43.67 -30.32 43.34 -31 43 C-24.75563925 34.11163064 -18.48281421 25.24519071 -12.125 16.4375 C-11.34153198 15.35106201 -11.34153198 15.35106201 -10.54223633 14.24267578 C-7.07999448 9.45558243 -3.55953649 4.71515814 0 0 Z " fill="#328799" transform="translate(264,143)"/>
<path d="M0 0 C9.76827372 -0.46189736 9.76827372 -0.46189736 14 1.125 C17.20080992 4.1257593 18.84613842 6.95297208 19.1796875 11.390625 C19.1866441 13.60282419 19.13247314 15.79211427 19 18 C18.34 18.33 17.68 18.66 17 19 C16.67 16.36 16.34 13.72 16 11 C15.67 12.65 15.34 14.3 15 16 C12.35534962 12.8745041 11.15585285 9.91211733 10 6 C11.65 6.33 13.3 6.66 15 7 C13.29042423 4.04873235 12.42407102 3.12035215 9.08203125 2.171875 C7.46361328 1.96304687 7.46361328 1.96304687 5.8125 1.75 C4.72582031 1.60046875 3.63914062 1.4509375 2.51953125 1.296875 C1.27236328 1.14992188 1.27236328 1.14992188 0 1 C0 0.67 0 0.34 0 0 Z " fill="#12BAE4" transform="translate(18,257)"/>
<path d="M0 0 C0.99 0.33 1.98 0.66 3 1 C2.34 1 1.68 1 1 1 C1 1.66 1 2.32 1 3 C1.66 3.33 2.32 3.66 3 4 C2.0925 4.28875 1.185 4.5775 0.25 4.875 C-2.32202908 5.76531776 -4.61346766 6.71494413 -7 8 C-7 7.34 -7 6.68 -7 6 C-7.66 6 -8.32 6 -9 6 C-10.35439668 8.70879335 -10.06501451 11.00933268 -10 14 C-7.36 13.34 -4.72 12.68 -2 12 C-6.625 17.875 -6.625 17.875 -10 19 C-12.23465229 15.64802157 -12.27108649 14.42208754 -12.25 10.5 C-12.25515625 9.5409375 -12.2603125 8.581875 -12.265625 7.59375 C-12 5 -12 5 -10 2 C-9.34 2.33 -8.68 2.66 -8 3 C-8.33 3.33 -8.66 3.66 -9 4 C-6.36 3.67 -3.72 3.34 -1 3 C-0.67 2.01 -0.34 1.02 0 0 Z " fill="#0CA8D3" transform="translate(284,116)"/>
<path d="M0 0 C-1.10932801 3.21705123 -1.95460824 3.97446713 -5 5.6875 C-5.99 6.120625 -6.98 6.55375 -8 7 C-8.99 7.495 -8.99 7.495 -10 8 C-10 10.31 -10 12.62 -10 15 C-10.99 15.495 -10.99 15.495 -12 16 C-12.34433896 11.94445229 -12.51642113 8.04529882 -12 4 C-8.29989141 0.12369576 -5.25180677 -0.50017207 0 0 Z " fill="#1F6073" transform="translate(64,109)"/>
<path d="M0 0 C4.40147657 0.50302589 6.75395419 2.02445801 10 5 C11.20272819 7.40545638 11.10071472 8.94996953 11.0625 11.625 C11.05347656 12.44226563 11.04445313 13.25953125 11.03515625 14.1015625 C11.02355469 14.72804688 11.01195313 15.35453125 11 16 C10.01 15.67 9.02 15.34 8 15 C7.95875 13.7625 7.9175 12.525 7.875 11.25 C7.68405791 9.03872512 7.68405791 9.03872512 7 7 C4.09587454 4.64677204 4.09587454 4.64677204 1 3 C0.67 2.01 0.34 1.02 0 0 Z " fill="#1A7891" transform="translate(66,109)"/>
<path d="M0 0 C0.66 0 1.32 0 2 0 C3.3271261 3.9813783 3.06915913 7.85045227 3 12 C2.01 11.67 1.02 11.34 0 11 C0 9.02 0 7.04 0 5 C-1.29633621 6.06645115 -1.29633621 6.06645115 -1.0625 8.5625 C-1.041875 9.366875 -1.02125 10.17125 -1 11 C-1.99 11.33 -2.98 11.66 -4 12 C-6.6875 10.0625 -6.6875 10.0625 -9 8 C-6.525 8.495 -6.525 8.495 -4 9 C-3.34 6.69 -2.68 4.38 -2 2 C-1.34 2 -0.68 2 0 2 C0 1.34 0 0.68 0 0 Z " fill="#0783A9" transform="translate(74,224)"/>
<path d="M0 0 C0.66 0.33 1.32 0.66 2 1 C1.2575 1.8971875 1.2575 1.8971875 0.5 2.8125 C-1.28276418 4.97029994 -1.28276418 4.97029994 -1 8 C-1.99 8.495 -1.99 8.495 -3 9 C-2.979375 9.94875 -2.95875 10.8975 -2.9375 11.875 C-3 15 -3 15 -4 17 C-3.01 17 -2.02 17 -1 17 C-0.67 16.34 -0.34 15.68 0 15 C0 15.99 0 16.98 0 18 C-3 20 -3 20 -6 21 C-6.08150744 18.93816367 -6.1394194 16.87538651 -6.1875 14.8125 C-6.22230469 13.66394531 -6.25710938 12.51539063 -6.29296875 11.33203125 C-5.85564957 6.35825443 -3.63806783 3.29158518 0 0 Z " fill="#0AC4EF" transform="translate(16,258)"/>
<path d="M0 0 C3 1 3 1 4 3 C4.99 3 5.98 3 7 3 C7.33 3.66 7.66 4.32 8 5 C10.52733235 5.65555119 10.52733235 5.65555119 13 6 C12.67 7.65 12.34 9.3 12 11 C10.0625 10.6875 10.0625 10.6875 8 10 C7.67 9.01 7.34 8.02 7 7 C4.52244354 5.42337316 2.81574626 4.87461678 -0.109375 5.32421875 C-2.08987354 5.81934338 -4.04739824 6.40429099 -6 7 C-6 6.34 -6 5.68 -6 5 C-5.38125 4.731875 -4.7625 4.46375 -4.125 4.1875 C-1.7004767 3.04443152 -1.7004767 3.04443152 0 0 Z " fill="#089ECB" transform="translate(175,58)"/>
<path d="M0 0 C0.33 0.66 0.66 1.32 1 2 C1.66 2 2.32 2 3 2 C3.33 1.34 3.66 0.68 4 0 C4 3.63 4 7.26 4 11 C3.67 10.34 3.34 9.68 3 9 C2.34 9 1.68 9 1 9 C0.67 9.66 0.34 10.32 0 11 C-0.37125 10.525625 -0.7425 10.05125 -1.125 9.5625 C-3.62646962 7.47794198 -5.81593418 7.35378509 -9 7 C-8.34 6.67 -7.68 6.34 -7 6 C-6.67 5.34 -6.34 4.68 -6 4 C-4.68 4.33 -3.36 4.66 -2 5 C-1.34 3.35 -0.68 1.7 0 0 Z " fill="#0397C5" transform="translate(292,227)"/>
<path d="M0 0 C3.36513174 0.58019513 4.63451473 1.63451473 7 4 C9.10332891 4.71447643 9.10332891 4.71447643 11 5 C11 5.99 11 6.98 11 8 C6.25 6.125 6.25 6.125 4 5 C-0.5787297 4.60184959 -2.50011715 5.10354523 -6 8 C-6.99 8 -7.98 8 -9 8 C-9 7.01 -9 6.02 -9 5 C-8.43410156 4.89042969 -7.86820313 4.78085938 -7.28515625 4.66796875 C-6.18494141 4.43013672 -6.18494141 4.43013672 -5.0625 4.1875 C-4.33160156 4.03667969 -3.60070312 3.88585937 -2.84765625 3.73046875 C-2.23792969 3.48941406 -1.62820312 3.24835938 -1 3 C-0.67 2.01 -0.34 1.02 0 0 Z " fill="#0399C7" transform="translate(179,155)"/>
<path d="M0 0 C2.97 0.495 2.97 0.495 6 1 C5.01 1.495 5.01 1.495 4 2 C4.28875 3.27875 4.5775 4.5575 4.875 5.875 C5.03742188 6.59429687 5.19984375 7.31359375 5.3671875 8.0546875 C5.90474428 10.20719964 5.90474428 10.20719964 8 12 C6.515 14.475 6.515 14.475 5 17 C4.34 16.67 3.68 16.34 3 16 C2.375 12.9375 2.375 12.9375 2 10 C1.01 9.67 0.02 9.34 -1 9 C-1 8.34 -1 7.68 -1 7 C-0.01 6.67 0.98 6.34 2 6 C2 6.99 2 7.98 2 9 C2.66 9 3.32 9 4 9 C3.67 6.69 3.34 4.38 3 2 C2.01 1.67 1.02 1.34 0 1 C0 0.67 0 0.34 0 0 Z " fill="#07A8D7" transform="translate(69,114)"/>
<path d="M0 0 C0.66 0.33 1.32 0.66 2 1 C1.67 2.98 1.34 4.96 1 7 C-0.32 7 -1.64 7 -3 7 C-3.33 7.66 -3.66 8.32 -4 9 C-5.32 7.35 -6.64 5.7 -8 4 C-6.71349294 3.30289269 -5.42059335 2.61757124 -4.125 1.9375 C-3.40570313 1.55464844 -2.68640625 1.17179688 -1.9453125 0.77734375 C-1.30335938 0.52082031 -0.66140625 0.26429688 0 0 Z " fill="#0492BF" transform="translate(191,163)"/>
<path d="M0 0 C0.99 0 1.98 0 3 0 C3.433125 0.495 3.86625 0.99 4.3125 1.5 C6.02209709 3.3314563 6.02209709 3.3314563 9.1875 3.1875 C10.115625 3.125625 11.04375 3.06375 12 3 C13.1577506 6.47325181 13.06866652 9.36067448 13 13 C12.01 13 11.02 13 10 13 C10 11.02 10 9.04 10 7 C9.34 7 8.68 7 8 7 C8 6.34 8 5.68 8 5 C6.8553125 4.814375 6.8553125 4.814375 5.6875 4.625 C3 4 3 4 0 2 C0 1.34 0 0.68 0 0 Z " fill="#0994BE" transform="translate(285,117)"/>
<path d="M0 0 C0.99 0.33 1.98 0.66 3 1 C3 1.66 3 2.32 3 3 C4.2065625 3.433125 4.2065625 3.433125 5.4375 3.875 C8 5 8 5 9 7 C8.154375 6.649375 7.30875 6.29875 6.4375 5.9375 C1.03196999 4.46326454 -3.14851922 5.40099244 -8 8 C-8.99 8 -9.98 8 -11 8 C-10.67 7.01 -10.34 6.02 -10 5 C-7.69175158 4.28976972 -5.41696017 3.98738636 -3.03125 3.625 C-2.3609375 3.41875 -1.690625 3.2125 -1 3 C-0.67 2.01 -0.34 1.02 0 0 Z " fill="#02A1D2" transform="translate(64,221)"/>
<path d="M0 0 C1.37478516 0.01740234 1.37478516 0.01740234 2.77734375 0.03515625 C3.69644531 0.04417969 4.61554688 0.05320313 5.5625 0.0625 C6.27277344 0.07410156 6.98304688 0.08570313 7.71484375 0.09765625 C6.78478516 0.52691406 6.78478516 0.52691406 5.8359375 0.96484375 C3.56210192 2.02728811 3.56210192 2.02728811 1.77734375 4.22265625 C-0.28515625 6.09765625 -0.28515625 6.09765625 -3.03515625 6.34765625 C-3.77765625 6.26515625 -4.52015625 6.18265625 -5.28515625 6.09765625 C-2.98903326 0.12773646 -2.98903326 0.12773646 0 0 Z " fill="#102E3B" transform="translate(280.28515625,219.90234375)"/>
<path d="M0 0 C-0.78375 0.433125 -1.5675 0.86625 -2.375 1.3125 C-5.21698375 2.89220247 -5.21698375 2.89220247 -7 6 C-7.66 6 -8.32 6 -9 6 C-8.67 8.97 -8.34 11.94 -8 15 C-8.99 15 -9.98 15 -11 15 C-12.05629997 6.5160669 -12.05629997 6.5160669 -9.58203125 2.96484375 C-4.48108671 -1.63579493 -4.48108671 -1.63579493 0 0 Z " fill="#246474" transform="translate(174,49)"/>
<path d="M0 0 C0.66 0.33 1.32 0.66 2 1 C1.49855469 1.38800781 0.99710938 1.77601563 0.48046875 2.17578125 C-1.24891882 3.92975791 -1.24891882 3.92975791 -1.07421875 6.48046875 C-0.88279297 7.82044922 -0.88279297 7.82044922 -0.6875 9.1875 C-0.56761719 10.08855469 -0.44773438 10.98960937 -0.32421875 11.91796875 C-0.21722656 12.60503906 -0.11023437 13.29210937 0 14 C-0.99 14.495 -0.99 14.495 -2 15 C-2.66 14.67 -3.32 14.34 -4 14 C-4.05447047 12.58376784 -4.09300508 11.16691809 -4.125 9.75 C-4.14820313 8.96109375 -4.17140625 8.1721875 -4.1953125 7.359375 C-3.97962391 4.75385683 -3.3921178 3.20013023 -2 1 C-1.34 0.67 -0.68 0.34 0 0 Z " fill="#309EB3" transform="translate(55,221)"/>
<path d="M0 0 C-3.34118082 3.57983659 -5.73768141 5.89716734 -10.75 6.125 C-11.4925 6.08375 -12.235 6.0425 -13 6 C-9.32275786 -0.51874744 -7.1066834 -0.11462393 0 0 Z " fill="#14313D" transform="translate(287,115)"/>
<path d="M0 0 C0.66 0.33 1.32 0.66 2 1 C0.89718873 2.27200971 -0.20730769 3.54255853 -1.3125 4.8125 C-1.92738281 5.52019531 -2.54226562 6.22789062 -3.17578125 6.95703125 C-6.44911047 10.6228796 -6.44911047 10.6228796 -8 12 C-8.66 12 -9.32 12 -10 12 C-8.62968895 6.34746692 -4.32310587 3.4886459 0 0 Z " fill="#16A0BD" transform="translate(52,209)"/>
<path d="M0 0 C0.33 0.66 0.66 1.32 1 2 C3.31 1.34 5.62 0.68 8 0 C8.33 0.66 8.66 1.32 9 2 C6.33333333 3.33333333 3.66666667 4.66666667 1 6 C0.59270772 8.32156597 0.25561323 10.6568787 0 13 C-2.80541099 8.79188352 -1.85569482 6.90079759 -1 2 C-0.67 1.34 -0.34 0.68 0 0 Z " fill="#0E8CB1" transform="translate(274,224)"/>
<path d="M0 0 C0.33 0.66 0.66 1.32 1 2 C1.66 2 2.32 2 3 2 C3.33 1.34 3.66 0.68 4 0 C3.979375 1.2375 3.95875 2.475 3.9375 3.75 C3.92480296 6.1497398 3.99596713 7.98507837 4.625 10.3125 C4.74875 10.869375 4.8725 11.42625 5 12 C4.01 13.485 4.01 13.485 3 15 C2.34 14.67 1.68 14.34 1 14 C1 13.34 1 12.68 1 12 C0.68521554 10.66216607 0.35412344 9.32796291 0 8 C0.66 8 1.32 8 2 8 C2 6.68 2 5.36 2 4 C1.34 4 0.68 4 0 4 C0 2.68 0 1.36 0 0 Z " fill="#09A6D4" transform="translate(292,122)"/>
<path d="M0 0 C0.98651887 2.95955661 1 4.92864836 1 8 C1.33 8.99 1.66 9.98 2 11 C0.68 12.32 -0.64 13.64 -2 15 C-2.66 14.67 -3.32 14.34 -4 14 C-3.67 13.01 -3.34 12.02 -3 11 C-3 10.01 -3 9.02 -3 8 C-2.34 8 -1.68 8 -1 8 C-1.33 6.02 -1.66 4.04 -2 2 C-1.34 2 -0.68 2 0 2 C0 1.34 0 0.68 0 0 Z " fill="#0BABD9" transform="translate(74,227)"/>
<path d="M0 0 C0.556875 0.226875 1.11375 0.45375 1.6875 0.6875 C-4.45535714 6.25892857 -4.45535714 6.25892857 -9.3125 6.6875 C-7.70234959 2.442558 -4.80443663 -0.64924819 0 0 Z " fill="#0F2936" transform="translate(176.3125,48.3125)"/>
<path d="M0 0 C2.31 0 4.62 0 7 0 C7.12375 0.61875 7.2475 1.2375 7.375 1.875 C7.87197356 4.19120832 7.87197356 4.19120832 10 6 C7.13822943 7.43088528 5.06624227 6.59991697 2 6 C2.33 4.68 2.66 3.36 3 2 C2.01 1.34 1.02 0.68 0 0 Z " fill="#1095BC" transform="translate(60,108)"/>
<path d="M0 0 C1.98 0 3.96 0 6 0 C5.375 1.875 5.375 1.875 4 4 C0.875 5.25 0.875 5.25 -2 6 C-2.33 5.01 -2.66 4.02 -3 3 C-2.34 3 -1.68 3 -1 3 C-0.67 2.01 -0.34 1.02 0 0 Z " fill="#143441" transform="translate(58,109)"/>
<path d="M0 0 C0.33 0 0.66 0 1 0 C1 2.64 1 5.28 1 8 C-0.65 8 -2.3 8 -4 8 C-4.33 6.35 -4.66 4.7 -5 3 C-3.35 3 -1.7 3 0 3 C0 2.01 0 1.02 0 0 Z " fill="#0B5872" transform="translate(187,56)"/>
<path d="M0 0 C0.66 0.33 1.32 0.66 2 1 C2 3.64 2 6.28 2 9 C1.01 9.33 0.02 9.66 -1 10 C-2.38125018 7.23749964 -2.19079306 5.05268901 -2 2 C-1.34 1.34 -0.68 0.68 0 0 Z " fill="#206D80" transform="translate(168,160)"/>
<path d="M0 0 C1.32 0 2.64 0 4 0 C4 2.64 4 5.28 4 8 C2.68 8.33 1.36 8.66 0 9 C0 6.03 0 3.06 0 0 Z " fill="#0D6480" transform="translate(273,122)"/>
<path d="M0 0 C0.99 0.33 1.98 0.66 3 1 C2.34 1 1.68 1 1 1 C1.33 1.66 1.66 2.32 2 3 C2.039992 4.99960012 2.04346799 7.00047242 2 9 C2.66 9 3.32 9 4 9 C3.42655063 11.86724686 3.1385485 12.8614515 1 15 C0 14 0 14 -0.09765625 10.83984375 C-0.08025391 8.90818359 -0.08025391 8.90818359 -0.0625 6.9375 C-0.05347656 5.64714844 -0.04445312 4.35679688 -0.03515625 3.02734375 C-0.02355469 2.02832031 -0.01195312 1.02929688 0 0 Z " fill="#06ADDE" transform="translate(165,55)"/>
<path d="M0 0 C0 3.54275774 -0.8144815 4.65443136 -2.75 7.5625 C-3.51570313 8.74005859 -3.51570313 8.74005859 -4.296875 9.94140625 C-6.07101919 12.085842 -7.44375456 12.97194477 -10 14 C-6.84577733 9.17403931 -3.71080883 4.42442592 0 0 Z " fill="#317686" transform="translate(264,143)"/>
<path d="M0 0 C0.66 0.33 1.32 0.66 2 1 C-1.63 4.63 -5.26 8.26 -9 12 C-9 7.8407692 -6.75316432 5.85455565 -4 3 C-1.6875 1.125 -1.6875 1.125 0 0 Z " fill="#0DB7DB" transform="translate(52,99)"/>
<path d="M0 0 C0.66 0 1.32 0 2 0 C3.3271261 3.9813783 3.06915913 7.85045227 3 12 C2.01 11.67 1.02 11.34 0 11 C0 7.37 0 3.74 0 0 Z " fill="#238DA5" transform="translate(74,224)"/>
<path d="M0 0 C1.32 0 2.64 0 4 0 C4.33 1.32 4.66 2.64 5 4 C3.3603125 4.2165625 3.3603125 4.2165625 1.6875 4.4375 C-1.93122987 4.88288104 -1.93122987 4.88288104 -5 6 C-5 5.34 -5 4.68 -5 4 C-4.360625 3.71125 -3.72125 3.4225 -3.0625 3.125 C-0.84793921 2.17176549 -0.84793921 2.17176549 0 0 Z " fill="#039BCA" transform="translate(178,164)"/>
<path d="M0 0 C3.37462715 0.54723683 5.08235 1.0549 8 3 C8 3.99 8 4.98 8 6 C4.21032475 5.45861782 2.48587161 3.84099612 0 1 C0 0.67 0 0.34 0 0 Z " fill="#113442" transform="translate(66,109)"/>
<path d="M0 0 C3.25543229 0.34879632 4.01873107 1.02133261 6.25 3.5625 C6.8275 4.366875 7.405 5.17125 8 6 C4.7 5.34 1.4 4.68 -2 4 C-1.34 2.68 -0.68 1.36 0 0 Z " fill="#02A2D2" transform="translate(284,221)"/>
<path d="M0 0 C0 4.0333534 -1.60879918 5.83517538 -4 9 C-4.66 9 -5.32 9 -6 9 C-6.33 9.99 -6.66 10.98 -7 12 C-7.66 11.67 -8.32 11.34 -9 11 C-6.03 7.37 -3.06 3.74 0 0 Z " fill="#2C8698" transform="translate(86,130)"/>
<path d="M0 0 C0.66 0.33 1.32 0.66 2 1 C-1.3 4.3 -4.6 7.6 -8 11 C-8 8 -8 8 -5.6875 5.5 C-4.800625 4.675 -3.91375 3.85 -3 3 C-2.401875 2.401875 -1.80375 1.80375 -1.1875 1.1875 C-0.795625 0.795625 -0.40375 0.40375 0 0 Z " fill="#0FB7D9" transform="translate(163,39)"/>
<path d="M0 0 C12.01989891 -0.5683665 12.01989891 -0.5683665 16 3 C16 3.66 16 4.32 16 5 C15.46890625 4.69320313 14.9378125 4.38640625 14.390625 4.0703125 C11.51859917 2.78447087 8.85769461 2.34791005 5.75 1.875 C4.67234375 1.70742188 3.5946875 1.53984375 2.484375 1.3671875 C1.25460938 1.18542969 1.25460938 1.18542969 0 1 C0 0.67 0 0.34 0 0 Z " fill="#198CA5" transform="translate(18,257)"/>
<path d="M0 0 C1.32 0 2.64 0 4 0 C4 1.32 4 2.64 4 4 C1.03 4.66 -1.94 5.32 -5 6 C-5 5.34 -5 4.68 -5 4 C-4.360625 3.71125 -3.72125 3.4225 -3.0625 3.125 C-0.84793921 2.17176549 -0.84793921 2.17176549 0 0 Z " fill="#0397C5" transform="translate(63,230)"/>
<path d="M0 0 C0.66 0.33 1.32 0.66 2 1 C-0.42195448 3.87255066 -2.59742703 4.70838919 -6.1875 5.6875 C-7.08855469 5.93886719 -7.98960938 6.19023437 -8.91796875 6.44921875 C-9.60503906 6.63097656 -10.29210937 6.81273437 -11 7 C-9.60623819 4.21247638 -7.82491442 3.69568885 -5.0625 2.3125 C-4.16660156 1.85488281 -3.27070313 1.39726562 -2.34765625 0.92578125 C-1.57292969 0.62027344 -0.79820312 0.31476563 0 0 Z " fill="#297B8C" transform="translate(135,178)"/>
<path d="M0 0 C0.66 0.33 1.32 0.66 2 1 C-4.07439825 5.90153173 -4.07439825 5.90153173 -7.9375 6.3125 C-8.618125 6.209375 -9.29875 6.10625 -10 6 C-6.87511433 3.47605388 -3.68685613 1.60298093 0 0 Z " fill="#28869A" transform="translate(147,172)"/>
<path d="M0 0 C2.375 0.25 2.375 0.25 5 1 C6.3125 3.0625 6.3125 3.0625 7 5 C4.03824877 4.38722388 2.61941217 3.74627478 0 2 C0 1.34 0 0.68 0 0 Z " fill="#07D1FA" transform="translate(26,259)"/>
<path d="M0 0 C0.66 0.33 1.32 0.66 2 1 C2 3.31 2 5.62 2 8 C1.01 8 0.02 8 -1 8 C-0.67 5.36 -0.34 2.72 0 0 Z " fill="#1A424F" transform="translate(296,122)"/>
<path d="M0 0 C0.66 0.33 1.32 0.66 2 1 C1.2575 1.8971875 1.2575 1.8971875 0.5 2.8125 C-1.28276418 4.97029994 -1.28276418 4.97029994 -1 8 C-2.32 8 -3.64 8 -5 8 C-4.45773019 4.20411134 -2.79872437 2.52788007 0 0 Z " fill="#0EBBE2" transform="translate(16,258)"/>
<path d="M0 0 C0.66 0.33 1.32 0.66 2 1 C2 3.31 2 5.62 2 8 C1.01 7.67 0.02 7.34 -1 7 C-0.67 4.69 -0.34 2.38 0 0 Z " fill="#173C48" transform="translate(296,228)"/>
<path d="M0 0 C1.485 0.99 1.485 0.99 3 2 C3.1875 4.625 3.1875 4.625 3 7 C2.01 7 1.02 7 0 7 C0 4.69 0 2.38 0 0 Z " fill="#0F4051" transform="translate(52,228)"/>
<path d="M0 0 C0.33 0 0.66 0 1 0 C1.33 2.97 1.66 5.94 2 9 C1.01 9 0.02 9 -1 9 C-1 5.72724974 -0.70074844 3.153368 0 0 Z " fill="#1085A7" transform="translate(54,119)"/>
<path d="M0 0 C0.66 0.33 1.32 0.66 2 1 C1.67 3.31 1.34 5.62 1 8 C-1 5 -1 5 -0.625 2.3125 C-0.41875 1.549375 -0.2125 0.78625 0 0 Z " fill="#143946" transform="translate(273,229)"/>
<path d="M0 0 C1.32 0 2.64 0 4 0 C3.34 1.65 2.68 3.3 2 5 C1.01 5 0.02 5 -1 5 C-0.67 3.35 -0.34 1.7 0 0 Z " fill="#12AED6" transform="translate(188,170)"/>
<path d="M0 0 C0.66 0.33 1.32 0.66 2 1 C1.67 2.98 1.34 4.96 1 7 C0.34 7 -0.32 7 -1 7 C-1.04254356 5.00045254 -1.04080783 2.99958364 -1 1 C-0.67 0.67 -0.34 0.34 0 0 Z " fill="#175565" transform="translate(191,163)"/>
</svg>
