<?xml version="1.0" encoding="UTF-8"?>
<svg version="1.1" xmlns="http://www.w3.org/2000/svg" width="320" height="320">
<path d="M0 0 C105.6 0 211.2 0 320 0 C320 105.6 320 211.2 320 320 C214.4 320 108.8 320 0 320 C0 214.4 0 108.8 0 0 Z " fill="#FEFEFE" transform="translate(0,0)"/>
<path d="M0 0 C4.94219949 3.02583642 9.28544945 7.92750993 11.296875 13.40625 C11.43646357 16.03051505 11.48618869 18.53917747 11.421875 21.15625 C11.41285156 21.85363281 11.40382812 22.55101563 11.39453125 23.26953125 C11.37107388 24.98191958 11.33520604 26.69413004 11.296875 28.40625 C24.09180303 35.7756785 36.94847967 43.02618941 49.88012695 50.15258789 C56.43546891 53.77531548 62.89931204 57.51214465 69.296875 61.40625 C71.22457041 62.56850241 73.15986551 63.71847091 75.109375 64.84375 C75.98207031 65.35808594 76.85476563 65.87242188 77.75390625 66.40234375 C80.80255662 67.60588161 82.20922824 67.38983534 85.296875 66.40625 C86.369375 65.890625 87.441875 65.375 88.546875 64.84375 C93.79943674 62.50927811 98.98175581 62.86151607 104.484375 64.15625 C111.10843775 67.10027789 116.19655139 71.07943494 119.40234375 77.68359375 C121.52226887 84.13594227 121.53099091 91.26311103 119.046875 97.58984375 C115.37747549 103.84990726 111.15358027 107.87862545 104.296875 110.40625 C103.636875 110.40625 102.976875 110.40625 102.296875 110.40625 C102.296875 129.87625 102.296875 149.34625 102.296875 169.40625 C105.266875 170.39625 105.266875 170.39625 108.296875 171.40625 C113.34851691 174.85917864 118.42665315 178.74116858 119.921875 184.90625 C120.09834664 186.40106864 120.22379189 187.90282596 120.296875 189.40625 C120.37421875 190.14875 120.4515625 190.89125 120.53125 191.65625 C120.90168657 197.58323506 119.54950467 202.43217288 116.296875 207.40625 C111.62356666 212.52835204 107.06757552 216.0188184 100.02734375 216.7421875 C87.01060291 216.88570173 87.01060291 216.88570173 81.296875 212.40625 C75.85124871 206.96062371 73.14176432 201.61337172 73.046875 193.90625 C73.12152697 189.67597179 73.65536353 185.58642154 74.296875 181.40625 C60.16092731 172.89868651 45.99358454 164.55642722 31.42089844 156.8112793 C24.96079816 153.36395876 18.75638031 149.69722763 12.6875 145.6015625 C10.43073128 144.2200745 10.43073128 144.2200745 8.21875 144.55078125 C6.07875605 145.50333953 4.24724109 146.67219981 2.296875 147.96875 C-3.28189765 151.13036086 -8.4288355 151.33672286 -14.703125 150.40625 C-19.6277446 148.82877023 -23.32150982 146.35146771 -26.703125 142.40625 C-30.60970735 143.64102315 -34.24600598 145.05167492 -37.91064453 146.88061523 C-39.392155 147.61664223 -39.392155 147.61664223 -40.90359497 148.36753845 C-41.95376801 148.8946492 -43.00394104 149.42175995 -44.0859375 149.96484375 C-45.17776337 150.50979996 -46.26958923 151.05475616 -47.39450073 151.6162262 C-49.69676454 152.76667898 -51.99802372 153.91914412 -54.29833984 155.07348633 C-57.81962948 156.83948931 -61.34510723 158.59691269 -64.87109375 160.35351562 C-67.10963173 161.47344532 -69.34792154 162.59387124 -71.5859375 163.71484375 C-72.640159 164.23993027 -73.69438049 164.76501678 -74.7805481 165.30601501 C-75.76191742 165.79985184 -76.74328674 166.29368866 -77.75439453 166.80249023 C-79.04629196 167.44963234 -79.04629196 167.44963234 -80.36428833 168.10984802 C-82.65091621 169.377311 -84.6278013 170.82379031 -86.703125 172.40625 C-88.32711027 173.1245004 -89.97512842 173.79034988 -91.640625 174.40625 C-95.23639698 175.7871964 -98.48274293 177.25932862 -101.703125 179.40625 C-101.455625 180.52 -101.455625 180.52 -101.203125 181.65625 C-100.00423822 190.64790087 -99.66758297 198.49751245 -104.95703125 206.2421875 C-109.20816091 211.73274733 -114.21682276 214.24414925 -120.703125 216.40625 C-127.55211879 217.1483257 -133.07984575 216.54787684 -138.703125 212.40625 C-144.01105636 207.68453596 -147.60017441 202.50502775 -148.703125 195.40625 C-148.85173426 188.38977005 -147.63830392 182.65394275 -142.83203125 177.3359375 C-139.92098422 174.35545265 -137.17752799 171.72251866 -133.703125 169.40625 C-132.713125 169.40625 -131.723125 169.40625 -130.703125 169.40625 C-130.67164373 161.13030332 -130.67769681 152.8555962 -130.73159122 144.57980728 C-130.75543994 140.73685087 -130.76638672 136.89476188 -130.74780273 133.05175781 C-130.73034045 129.34239177 -130.74682823 125.63458364 -130.78680229 121.92540741 C-130.79609216 120.5108687 -130.79317456 119.09619515 -130.77781868 117.68170929 C-130.32230001 110.17775318 -130.32230001 110.17775318 -133.24610901 103.70007324 C-135.33259884 102.43714069 -135.33259884 102.43714069 -138.703125 101.40625 C-140.84765625 99.40625 -140.84765625 99.40625 -142.515625 97.40625 C-143.07894531 96.74625 -143.64226562 96.08625 -144.22265625 95.40625 C-148.81831825 89.19786229 -148.35360097 82.92473852 -147.703125 75.40625 C-145.9944712 68.31935034 -140.45161703 63.5358581 -134.703125 59.40625 C-128.9209026 56.61483229 -123.11364942 56.37187063 -116.97265625 58.234375 C-110.5835023 60.76361172 -110.5835023 60.76361172 -107.8515625 62.7578125 C-105.48763371 63.71852379 -105.48763371 63.71852379 -102.453125 62.0625 C-101.1944537 61.35904559 -99.94485357 60.63919729 -98.703125 59.90625 C-97.34972414 59.14447118 -95.99554819 58.38406787 -94.640625 57.625 C-93.97160156 57.24472656 -93.30257812 56.86445312 -92.61328125 56.47265625 C-90.02033221 55.02505893 -87.37041337 53.71090192 -84.703125 52.40625 C-78.21394497 49.19222813 -71.83284632 45.78797677 -65.45898438 42.35253906 C-63.85935833 41.49044916 -62.25790153 40.63175845 -60.65625 39.7734375 C-55.31151839 36.88969813 -50.07278634 33.87661906 -44.89453125 30.703125 C-39.32360693 27.40625 -39.32360693 27.40625 -35.703125 27.40625 C-35.74953125 26.560625 -35.7959375 25.715 -35.84375 24.84375 C-36.06785739 17.80037501 -36.18519788 12.0993565 -31.703125 6.40625 C-22.63952931 -3.13039348 -12.24950688 -5.46156358 0 0 Z " fill="#0ED6FE" transform="translate(188.703125,39.59375)"/>
<path d="M0 0 C3.33514329 1.08586061 5.79760527 2.9074121 8.6875 4.875 C14.23560712 6.71644883 21.56251624 7.12920933 27.00390625 4.9453125 C28.98092979 3.86257094 28.98092979 3.86257094 30.67578125 2.65234375 C33.88510788 1.41223501 36.50077721 1.87451297 39.6875 2.875 C43.46210068 4.65954046 47.03208986 6.75234807 50.625 8.875 C52.69129539 10.07050413 54.75770199 11.26581606 56.82421875 12.4609375 C58.33121338 13.34023926 58.33121338 13.34023926 59.86865234 14.23730469 C63.53500914 16.36738622 67.23300569 18.43726477 70.9375 20.5 C77.68560707 24.27785028 84.37459445 28.15570111 91.04394531 32.07080078 C95.84147907 34.87022265 100.69421149 37.44077185 105.6875 39.875 C105.65269531 40.70902344 105.61789062 41.54304688 105.58203125 42.40234375 C105.42952603 48.74220378 105.51841463 53.94144471 108.12890625 59.77734375 C108.95147453 62.86628899 108.55957971 64.79440674 107.6875 67.875 C106.22414215 70.39215151 104.48067042 72.64764388 102.6875 74.9375 C101.67681588 76.26834075 100.66772533 77.60039307 99.66015625 78.93359375 C99.15629395 79.59601074 98.65243164 80.25842773 98.13330078 80.94091797 C96.04252403 83.73779966 94.08713467 86.61120424 92.125 89.5 C88.95121268 94.10084997 85.72263591 98.64953771 82.375 103.125 C81.96628662 103.68654785 81.55757324 104.2480957 81.13647461 104.82666016 C78.27160278 108.60053821 78.27160278 108.60053821 75.90795898 109.71118164 C72.60102405 109.95515672 70.75404443 108.61162811 67.8984375 106.98046875 C66.23941406 106.04170898 66.23941406 106.04170898 64.546875 105.08398438 C63.97517578 104.75229248 63.40347656 104.42060059 62.81445312 104.07885742 C61.06793361 103.06565219 59.31258641 102.06947821 57.5546875 101.07617188 C49.01561437 96.20311437 49.01561437 96.20311437 46.6875 93.875 C46.32145164 91.4462982 46.03280392 89.06709234 45.8125 86.625 C45.17308901 79.74112845 43.19662729 76.01140911 38.9375 70.6875 C33.117499 65.99916586 26.909073 65.30638168 19.65234375 65.53515625 C13.06089727 66.29069755 8.43541325 68.49355343 4.25 73.6875 C1.13427117 78.33527229 -0.20479452 82.74721843 -0.48828125 88.34765625 C-1.3125 91.875 -1.3125 91.875 -3.8046875 93.9921875 C-4.92101562 94.57226562 -6.03734375 95.15234375 -7.1875 95.75 C-7.80246338 96.07677734 -8.41742676 96.40355469 -9.05102539 96.74023438 C-15.01020781 99.85564636 -21.12390813 102.6837807 -27.21704102 105.52563477 C-36.63862125 109.9238762 -45.70934372 114.8929157 -54.81640625 119.90234375 C-56.2708313 120.70031372 -56.2708313 120.70031372 -57.75463867 121.5144043 C-59.65920394 122.56030599 -61.56183095 123.60974785 -63.4621582 124.66333008 C-79.51647555 133.49225621 -79.51647555 133.49225621 -84.3125 132.1875 C-87.3125 130.875 -87.3125 130.875 -88.3125 129.875 C-88.40655142 127.8806827 -88.42993249 125.88300457 -88.42602539 123.88647461 C-88.42594986 122.60522202 -88.42587433 121.32396942 -88.42579651 120.00389099 C-88.42068909 118.59504152 -88.41547309 117.18619244 -88.41015625 115.77734375 C-88.40829202 114.34387766 -88.40686814 112.91041093 -88.40586853 111.47694397 C-88.40204372 107.69740043 -88.39221377 103.9178951 -88.38116455 100.1383667 C-88.37094963 96.28430702 -88.36637074 92.43024118 -88.36132812 88.57617188 C-88.35059146 81.00909713 -88.33351549 73.44205391 -88.3125 65.875 C-87.69689209 65.62322998 -87.08128418 65.37145996 -86.44702148 65.11206055 C-85.63821533 64.76957275 -84.82940918 64.42708496 -83.99609375 64.07421875 C-83.19486084 63.73994873 -82.39362793 63.40567871 -81.56811523 63.0612793 C-78.17433905 61.2764153 -76.56234858 58.94297533 -74.3125 55.875 C-73.3225 55.38 -73.3225 55.38 -72.3125 54.875 C-70.04822228 50.67736245 -70.30560001 47.20376 -70.4609375 42.51953125 C-70.35011639 38.42454648 -70.0224558 35.6183856 -67.08300781 32.54052734 C-63.80229226 30.58316626 -60.45112409 29.03492038 -56.9375 27.5625 C-55.65215911 26.97097142 -54.36980836 26.37290774 -53.09033203 25.76879883 C-50.33274327 24.47196938 -47.56425874 23.20356291 -44.78710938 21.94921875 C-37.57517297 18.6516951 -30.56835578 14.93981422 -23.53533936 11.28067017 C-21.21198006 10.07520141 -18.8836601 8.87995243 -16.55322266 7.68823242 C-15.82544617 7.31549194 -15.09766968 6.94275146 -14.34783936 6.55871582 C-12.98169203 5.85914891 -11.61506166 5.16052421 -10.24786377 4.4630127 C-1.41448034 -0.0764584 -1.41448034 -0.0764584 0 0 Z " fill="#FDFEFE" transform="translate(157.3125,78.125)"/>
<path d="M0 0 C2.475 0.495 2.475 0.495 5 1 C5 20.14 5 39.28 5 59 C-2 62 -2 62 -4.57958984 61.42602539 C-5.36543457 60.98766357 -6.1512793 60.54930176 -6.9609375 60.09765625 C-7.84523438 59.61876953 -8.72953125 59.13988281 -9.640625 58.64648438 C-10.54296875 58.12376953 -11.4453125 57.60105469 -12.375 57.0625 C-13.26960938 56.57458984 -14.16421875 56.08667969 -15.0859375 55.58398438 C-20.92845064 52.3527689 -26.50432148 48.78742583 -32 45 C-30.27068122 41.44232655 -28.24111338 38.26562235 -26 35 C-25.35611328 34.03900391 -25.35611328 34.03900391 -24.69921875 33.05859375 C-23.51887075 31.33507676 -22.26399161 29.66314685 -21 28 C-20.34 28 -19.68 28 -19 28 C-18.9175 27.4534375 -18.835 26.906875 -18.75 26.34375 C-17.74226129 23.19456652 -16.02286652 21.11286925 -14 18.5 C-12.79537109 16.92992187 -12.79537109 16.92992187 -11.56640625 15.328125 C-11.14633301 14.78478516 -10.72625977 14.24144531 -10.29345703 13.68164062 C-8.14746392 10.89160655 -6.04450437 8.06951793 -3.9375 5.25 C-2.625 3.5 -1.3125 1.75 0 0 Z " fill="#F9FEFE" transform="translate(275,150)"/>
<path d="M0 0 C3.4285785 2.02008139 6.20847086 4.41694171 8 8 C8.66889732 13.57414433 7.52348212 16.84849511 4.41015625 21.33203125 C1.87825072 24.32683364 -0.31955265 24.80670179 -4.10546875 25.2421875 C-9.55638787 25.5526251 -12.75735452 24.7123148 -17 21 C-18.73819756 15.78540733 -18.88247944 10.18297546 -16.8125 5.0625 C-12.14321582 -0.25082338 -6.84697587 -1.3523576 0 0 Z " fill="#09D1FE" transform="translate(29,258)"/>
<path d="M0 0 C5.1659769 3.15698588 7.29092324 6.37010009 9 12 C8.6875 14.9375 8.6875 14.9375 8 17 C7.01 16.67 6.02 16.34 5 16 C5 14.02 5 12.04 5 10 C3.70366379 11.06645115 3.70366379 11.06645115 3.9375 13.5625 C3.958125 14.366875 3.97875 15.17125 4 16 C3.34 16 2.68 16 2 16 C2.33 16.99 2.66 17.98 3 19 C3.66 19.33 4.32 19.66 5 20 C4.1875 22.4375 4.1875 22.4375 3 25 C-2.16309982 26.72103327 -7.31602429 27.08996124 -12.43359375 25.01171875 C-15.6728289 22.96193537 -17.65580984 21.39025828 -18.59765625 17.5859375 C-18.80845803 11.51851235 -17.40906326 6.91095144 -13.5 2.1875 C-9.69534446 -0.82451897 -4.59370279 -0.68316606 0 0 Z " fill="#40D4FE" transform="translate(290,219)"/>
<path d="M0 0 C3.37277904 2.05381517 6.21990552 4.43981104 8 8 C8.13415472 10.6723621 8.04318541 13.32250488 8 16 C7.01 16 6.02 16 5 16 C4.67 14.35 4.34 12.7 4 11 C4 12.32 4 13.64 4 15 C2.68 15 1.36 15 0 15 C0.845625 15.7425 1.69125 16.485 2.5625 17.25 C5 20 5 20 5.0625 22.1875 C3.68843841 24.53148741 2.49172325 24.96802966 0 26 C-3.83242237 26.66196386 -7.48819662 26.88368141 -10.91796875 24.87890625 C-12.5625 23.5 -12.5625 23.5 -15 21 C-13.35 19.35 -11.7 17.7 -10 16 C-10.99 15.67 -11.98 15.34 -13 15 C-12.67 12.69 -12.34 10.38 -12 8 C-12.99 8.33 -13.98 8.66 -15 9 C-14.67 11.31 -14.34 13.62 -14 16 C-15.32 16 -16.64 16 -18 16 C-18.46285714 7.97714286 -18.46285714 7.97714286 -16.875 4.625 C-11.89650836 0.31030725 -6.46860984 -1.42376681 0 0 Z " fill="#8CE5FE" transform="translate(69,108)"/>
<path d="M0 0 C3.50746716 1.92603021 6.3486181 4.10233248 7.67578125 7.96875 C8.15688064 10.98286669 8.05855306 13.95524106 8 17 C7.34 17.33 6.68 17.66 6 18 C5 11.375 5 11.375 5 8 C3.865625 7.54625 2.73125 7.0925 1.5625 6.625 C-2 5 -2 5 -3 3 C-3.99 2.67 -4.98 2.34 -6 2 C-6.33 2.99 -6.66 3.98 -7 5 C-5.88625 5.28875 -4.7725 5.5775 -3.625 5.875 C0 7 0 7 2 9 C1.625 11.125 1.625 11.125 1 13 C-0.32 13 -1.64 13 -3 13 C-3.33 12.67 -3.66 12.34 -4 12 C-4.66 12.66 -5.32 13.32 -6 14 C-5.29875 14.061875 -4.5975 14.12375 -3.875 14.1875 C0.0332733 15.29201202 2.00357248 17.28230992 5 20 C2.25 24.875 2.25 24.875 0 26 C-5.34243433 26.35032356 -8.64786539 26.4561069 -13 23 C-13.66 22.01 -14.32 21.02 -15 20 C-14.01 19.01 -13.02 18.02 -12 17 C-12.66 16.67 -13.32 16.34 -14 16 C-14.25 13.75 -14.25 13.75 -14 11 C-12 8.6875 -12 8.6875 -10 7 C-10.61875 7.185625 -11.2375 7.37125 -11.875 7.5625 C-14 8 -14 8 -16 7 C-15.67 10.3 -15.34 13.6 -15 17 C-15.99 16.67 -16.98 16.34 -18 16 C-18.57622154 11.96644921 -18.81676845 8.50285394 -16.828125 4.84375 C-12.13109401 -0.61375267 -6.92381617 -1.63450792 0 0 Z " fill="#ECFBFE" transform="translate(181,48)"/>
<path d="M0 0 C2.375 1 2.375 1 4 2 C3.67 3.65 3.34 5.3 3 7 C1.33333333 7 -0.33333333 7 -2 7 C-2.33 7.33 -2.66 7.66 -3 8 C-1.3603125 8.6496875 -1.3603125 8.6496875 0.3125 9.3125 C5.4184923 11.52889423 5.4184923 11.52889423 7 14 C7 16.0625 7 16.0625 6 18 C2.06865856 20.38263117 -2.51688403 20.9001188 -7 20 C-9.38472937 18.55302891 -11.00508055 16.99491945 -13 15 C-12.01 13.68 -11.02 12.36 -10 11 C-10.33 10.67 -10.66 10.34 -11 10 C-11.375 7.1875 -11.375 7.1875 -11 4 C-7.59747147 0.19717399 -5.02002341 -0.64085405 0 0 Z " fill="#FAFEFE" transform="translate(288,120)"/>
<path d="M0 0 C3.24006063 1.35002526 4.51973759 2.19956265 6.3125 5.1875 C6.539375 5.785625 6.76625 6.38375 7 7 C5.68 7 4.36 7 3 7 C2.67 8.65 2.34 10.3 2 12 C0.68 12 -0.64 12 -2 12 C-2 11.34 -2 10.68 -2 10 C-4.71224618 11.61268692 -7.37352812 13.24901874 -10 15 C-10.99 15 -11.98 15 -13 15 C-13.33 15.99 -13.66 16.98 -14 18 C-15.5 17 -15.5 17 -17 15 C-17.5300805 10.3050013 -17.71670966 8.13684981 -15.1875 4.125 C-10.33095705 -0.59278458 -6.47947105 -0.67278853 0 0 Z " fill="#72DFFE" transform="translate(184,154)"/>
<path d="M0 0 C2.80740885 2.24592708 4.61164156 3.89467213 5.8125 7.3125 C5.874375 7.869375 5.93625 8.42625 6 9 C2.15114183 11.97976116 -1.04074392 12.56412725 -5.7734375 12.4375 C-9.52523504 11.70030469 -11.37043336 9.69699143 -14 7 C-6.32237147 -0.88513201 -6.32237147 -0.88513201 0 0 Z " fill="#F9FDFE" transform="translate(68,122)"/>
<path d="M0 0 C2.33470194 1.45473803 4.01170253 3.06019759 6 5 C5.1875 7.4375 5.1875 7.4375 4 10 C-0.33363687 11.44454562 -4.47111546 11.54086997 -9 11 C-12.125 9.125 -12.125 9.125 -14 7 C-14 6.34 -14 5.68 -14 5 C-9.17239273 0.80760421 -6.49578014 -0.64957801 0 0 Z " fill="#F9FDFE" transform="translate(289,234)"/>
<path d="M0 0 C3.68450589 1.52186113 5.95691347 3.47784822 8.875 6.1875 C6.125 11.0625 6.125 11.0625 3.875 12.1875 C-1.46743433 12.53782356 -4.77286539 12.6436069 -9.125 9.1875 C-9.785 8.1975 -10.445 7.2075 -11.125 6.1875 C-4.35726288 0.26143577 -4.35726288 0.26143577 0 0 Z " fill="#F7FDFE" transform="translate(177.125,61.8125)"/>
<path d="M0 0 C3.32068174 0.84274878 5.55226658 1.43458893 8.125 3.7734375 C9.0625 5.8984375 9.0625 5.8984375 9.0625 8.0234375 C8.0625 9.8984375 8.0625 9.8984375 6.0625 11.2109375 C1.89316423 12.16641028 -1.8208852 12.12727774 -5.9375 10.8984375 C-8.5 8.3359375 -8.5 8.3359375 -9.9375 5.8984375 C-2.50106521 -0.13110422 -2.50106521 -0.13110422 0 0 Z " fill="#F6FDFE" transform="translate(179.9375,167.1015625)"/>
<path d="M0 0 C5.1659769 3.15698588 7.29092324 6.37010009 9 12 C8.6875 14.9375 8.6875 14.9375 8 17 C7.01 16.67 6.02 16.34 5 16 C5 13.36 5 10.72 5 8 C3.88625 7.54625 2.7725 7.0925 1.625 6.625 C-2 5 -2 5 -4 3 C-4.33 3.66 -4.66 4.32 -5 5 C-7.28515625 5.8515625 -7.28515625 5.8515625 -10.0625 6.625 C-10.98160156 6.88539063 -11.90070313 7.14578125 -12.84765625 7.4140625 C-13.55792969 7.60742188 -14.26820313 7.80078125 -15 8 C-15 10.97 -15 13.94 -15 17 C-15.66 17 -16.32 17 -17 17 C-18.19875732 11.55110309 -18.01092008 8.73144584 -15 4 C-11.13507116 -0.67012235 -5.68928837 -0.8460993 0 0 Z " fill="#E1F9FE" transform="translate(290,219)"/>
<path d="M0 0 C2.5 2.5 2.5 2.5 4 5 C2.125 8.875 2.125 8.875 1 10 C-8.21718954 11.08255582 -8.21718954 11.08255582 -11.83984375 8.8828125 C-13.1875 7.5 -13.1875 7.5 -15 5 C-14.01 5 -13.02 5 -12 5 C-12 4.01 -12 3.02 -12 2 C-8.3223227 -0.45178487 -4.27507551 -0.90232127 0 0 Z " fill="#F7FDFE" transform="translate(69,234)"/>
<path d="M0 0 C3.24006063 1.35002526 4.51973759 2.19956265 6.3125 5.1875 C6.539375 5.785625 6.76625 6.38375 7 7 C6.01 7.33 5.02 7.66 4 8 C0.83733102 6.41866551 -1.63055987 4.61885488 -4 2 C-4.33 2.99 -4.66 3.98 -5 5 C-7.06640625 5.94921875 -7.06640625 5.94921875 -9.5625 6.6875 C-10.38878906 6.93886719 -11.21507812 7.19023437 -12.06640625 7.44921875 C-12.70449219 7.63097656 -13.34257813 7.81273437 -14 8 C-13.67 10.64 -13.34 13.28 -13 16 C-13.99 16.66 -14.98 17.32 -16 18 C-17.53597454 14.92805092 -17.2265038 12.39755707 -17 9 C-13.65169385 0.294404 -8.74065905 -1.04831243 0 0 Z " fill="#E9FAFE" transform="translate(68,219)"/>
<path d="M0 0 C4.13924176 1.74767985 6.63185051 4.19404546 9 8 C9.60265997 10.70192553 9.81169528 13.22250535 10 16 C8.68 16 7.36 16 6 16 C6.33 13.36 6.66 10.72 7 8 C6.278125 7.9175 5.55625 7.835 4.8125 7.75 C1.44686746 6.85249799 -0.41612816 5.2885722 -3 3 C-3.33 3.66 -3.66 4.32 -4 5 C-7.75920564 6.93330576 -10.80924525 7.19491883 -15 7 C-12.0344013 -0.16686353 -7.17914341 -0.93920693 0 0 Z " fill="#EBFBFE" transform="translate(289,114)"/>
<path d="M0 0 C2.375 1 2.375 1 4 2 C3.67 3.65 3.34 5.3 3 7 C1.33333333 7 -0.33333333 7 -2 7 C-2.33 7.66 -2.66 8.32 -3 9 C-5.9375 10.1875 -5.9375 10.1875 -9 11 C-9.66 10.67 -10.32 10.34 -11 10 C-11.3125 7.25 -11.3125 7.25 -11 4 C-7.59747147 0.19717399 -5.02002341 -0.64085405 0 0 Z " fill="#EBFAFE" transform="translate(288,120)"/>
<path d="M0 0 C3.37559685 0.58199946 4.62752283 1.62752283 7 4 C9.59915538 5.19027984 9.59915538 5.19027984 12 6 C11.96744792 7.98567708 11.93489583 9.97135417 11.90234375 11.95703125 C11.91736783 14.20305461 11.91736783 14.20305461 13 17 C12.34 17.66 11.68 18.32 11 19 C9.700625 17.824375 9.700625 17.824375 8.375 16.625 C5.44943553 14.16613272 2.72463238 12.97549896 -1 12 C-0.34 11.01 0.32 10.02 1 9 C1.66 9 2.32 9 3 9 C3.33 9.66 3.66 10.32 4 11 C4.99 10.67 5.98 10.34 7 10 C6.67 8.68 6.34 7.36 6 6 C3.36 5.34 0.72 4.68 -2 4 C-1.34 2.68 -0.68 1.36 0 0 Z " fill="#42D3FE" transform="translate(175,50)"/>
<path d="M0 0 C3.42625454 2.0285406 6.20704012 4.41408023 8 8 C8.1875 11.5 8.1875 11.5 8 15 C7.34 15.66 6.68 16.32 6 17 C3.32072659 12.98108988 3.84398752 10.75838077 4 6 C3.401875 5.87625 2.80375 5.7525 2.1875 5.625 C0 5 0 5 -3 3 C-3 2.34 -3 1.68 -3 1 C-4.32 1 -5.64 1 -7 1 C-7 1.66 -7 2.32 -7 3 C-9.25 4.75 -9.25 4.75 -12 6 C-14.3125 5.1875 -14.3125 5.1875 -16 4 C-11.01876729 -0.19472228 -6.46620197 -1.38707172 0 0 Z " fill="#18D7FE" transform="translate(29,258)"/>
<path d="M0 0 C0.99 0.66 1.98 1.32 3 2 C2.67 3.98 2.34 5.96 2 8 C1.01 7.67 0.02 7.34 -1 7 C-1 6.34 -1 5.68 -1 5 C-1.71027344 5.3609375 -2.42054687 5.721875 -3.15234375 6.09375 C-4.07144531 6.5578125 -4.99054687 7.021875 -5.9375 7.5 C-7.31228516 8.19609375 -7.31228516 8.19609375 -8.71484375 8.90625 C-11 10 -11 10 -12 10 C-11.8125 6.6875 -11.8125 6.6875 -11 3 C-7.52060125 -0.08175318 -4.55446345 -0.49505037 0 0 Z " fill="#F5FCFE" transform="translate(68,225)"/>
<path d="M0 0 C0.66 0.33 1.32 0.66 2 1 C1.67 2.65 1.34 4.3 1 6 C-0.32 6 -1.64 6 -3 6 C-3 5.34 -3 4.68 -3 4 C-3.721875 4.45375 -4.44375 4.9075 -5.1875 5.375 C-7.74894081 6.85494358 -10.23277989 7.97217539 -13 9 C-13.375 6.25 -13.375 6.25 -13 3 C-8.64111284 -1.14625852 -5.72780278 -1.43195069 0 0 Z " fill="#F4FCFE" transform="translate(185,160)"/>
<path d="M0 0 C3 1 3 1 4.375 2.4375 C6.38576214 4.37092514 8.39052205 5.0831564 11 6 C10.979375 7.2375 10.95875 8.475 10.9375 9.75 C10.93233319 12.6640825 11.06984442 15.20953327 12 18 C11.34 18.33 10.68 18.66 10 19 C8.700625 17.824375 8.700625 17.824375 7.375 16.625 C4.44943553 14.16613272 1.72463238 12.97549896 -2 12 C-1.34 11.01 -0.68 10.02 0 9 C2.475 9.99 2.475 9.99 5 11 C5.66 9.35 6.32 7.7 7 6 C3.7 5.34 0.4 4.68 -3 4 C-2.01 3.01 -1.02 2.02 0 1 C0 0.67 0 0.34 0 0 Z " fill="#3AD1FE" transform="translate(285,116)"/>
<path d="M0 0 C0.99 0.66 1.98 1.32 3 2 C2.67 3.65 2.34 5.3 2 7 C-1 7 -1 7 -2.6875 5.5 C-3.120625 5.005 -3.55375 4.51 -4 4 C-4.33 4.99 -4.66 5.98 -5 7 C-8 9 -8 9 -12 9 C-11.5152439 2.45579268 -11.5152439 2.45579268 -9.375 0.5625 C-6.14680489 -0.20207253 -3.30494327 -0.24035951 0 0 Z " fill="#F7FDFE" transform="translate(68,114)"/>
<path d="M0 0 C0.66 0.33 1.32 0.66 2 1 C1.67 2.65 1.34 4.3 1 6 C-2.10551666 6 -3.35261084 5.4606285 -6 4 C-6.33 4.99 -6.66 5.98 -7 7 C-10.0625 8.1875 -10.0625 8.1875 -13 9 C-12.63774912 2.60023447 -12.63774912 2.60023447 -9.875 0 C-6.19974309 -1.27835023 -3.76027054 -0.85138201 0 0 Z " fill="#F6FCFE" transform="translate(290,226)"/>
<path d="M0 0 C0 0.66 0 1.32 0 2 C0.66 2.33 1.32 2.66 2 3 C1.30132812 3.27714844 0.60265625 3.55429688 -0.1171875 3.83984375 C-1.02726562 4.20207031 -1.93734375 4.56429687 -2.875 4.9375 C-3.77992187 5.29714844 -4.68484375 5.65679687 -5.6171875 6.02734375 C-7.96137667 6.94901262 -7.96137667 6.94901262 -10 8 C-9.67 10.31 -9.34 12.62 -9 15 C-10.32 15 -11.64 15 -13 15 C-13.46672429 6.91011236 -13.46672429 6.91011236 -11.75 3.5625 C-7.92168463 0.14436128 -5.11154351 -0.23234289 0 0 Z " fill="#84E7FB" transform="translate(64,109)"/>
<path d="M0 0 C3.24006063 1.35002526 4.51973759 2.19956265 6.3125 5.1875 C6.539375 5.785625 6.76625 6.38375 7 7 C3.21213403 6.4739075 0.82847776 5.61896089 -2 3 C-2 2.34 -2 1.68 -2 1 C-2.721875 1.61875 -3.44375 2.2375 -4.1875 2.875 C-6.8177653 4.86231156 -8.84993772 6.08813987 -12 7 C-12.99 6.67 -13.98 6.34 -15 6 C-11.97598353 -0.97849954 -6.80182822 -0.70626012 0 0 Z " fill="#ECFCFE" transform="translate(184,154)"/>
<path d="M0 0 C0.99 0 1.98 0 3 0 C2.67 2.97 2.34 5.94 2 9 C1.01 9.33 0.02 9.66 -1 10 C-1.66 9.67 -2.32 9.34 -3 9 C-6.67329964 8.86642547 -9.49852959 8.8328432 -13 10 C-13.33 9.34 -13.66 8.68 -14 8 C-13.195625 7.71125 -12.39125 7.4225 -11.5625 7.125 C-8.8673532 6.26737432 -8.8673532 6.26737432 -8 4 C-7.401875 4.165 -6.80375 4.33 -6.1875 4.5 C-3.88655664 5.1114124 -3.88655664 5.1114124 -1 5 C-0.67 3.35 -0.34 1.7 0 0 Z " fill="#5ED9FE" transform="translate(292,226)"/>
<path d="M0 0 C1.33804688 0.04060547 1.33804688 0.04060547 2.703125 0.08203125 C3.37859375 0.11683594 4.0540625 0.15164062 4.75 0.1875 C4.75 0.5175 4.75 0.8475 4.75 1.1875 C3.82767578 1.22617188 3.82767578 1.22617188 2.88671875 1.265625 C-2.11073185 1.46705446 -2.11073185 1.46705446 -6.1875 4 C-6.538125 4.721875 -6.88875 5.44375 -7.25 6.1875 C-7.641875 6.93 -8.03375 7.6725 -8.4375 8.4375 C-8.705625 9.015 -8.97375 9.5925 -9.25 10.1875 C-8.92 10.5175 -8.59 10.8475 -8.25 11.1875 C-8 13.625 -8 13.625 -8.25 16.1875 C-9.24 16.8475 -10.23 17.5075 -11.25 18.1875 C-12.78597454 15.11555092 -12.4765038 12.58505707 -12.25 9.1875 C-9.79975206 2.81685536 -6.98547503 -0.27574244 0 0 Z " fill="#C2F6FD" transform="translate(63.25,218.8125)"/>
<path d="M0 0 C1.98 0.66 3.96 1.32 6 2 C5.67 4.64 5.34 7.28 5 10 C4.01 10.33 3.02 10.66 2 11 C1.67 10.67 1.34 10.34 1 10 C-1.01964199 9.92755947 -3.04167124 9.91622812 -5.0625 9.9375 C-6.16722656 9.94652344 -7.27195313 9.95554688 -8.41015625 9.96484375 C-9.26480469 9.97644531 -10.11945312 9.98804688 -11 10 C-10.01 9.34 -9.02 8.68 -8 8 C-7.34 7.46375 -6.68 6.9275 -6 6.375 C-4 5 -4 5 -1 5 C0.6875 6.5 0.6875 6.5 2 8 C2.33 6.02 2.66 4.04 3 2 C2.01 1.67 1.02 1.34 0 1 C0 0.67 0 0.34 0 0 Z " fill="#57D7FE" transform="translate(68,225)"/>
<path d="M0 0 C1.23556641 0.01740234 1.23556641 0.01740234 2.49609375 0.03515625 C3.32238281 0.04417969 4.14867187 0.05320312 5 0.0625 C5.63808594 0.07410156 6.27617187 0.08570312 6.93359375 0.09765625 C6.29421875 0.63390625 5.65484375 1.17015625 4.99609375 1.72265625 C2.54829971 4.54132818 2.26644763 6.43626357 1.93359375 10.09765625 C0.61359375 10.42765625 -0.70640625 10.75765625 -2.06640625 11.09765625 C-3.69292147 7.84462581 -3.18093781 4.70540023 -3.06640625 1.09765625 C-2.06640625 0.09765625 -2.06640625 0.09765625 0 0 Z " fill="#7BE2FD" transform="translate(275.06640625,119.90234375)"/>
<path d="M0 0 C-1.32 0.33 -2.64 0.66 -4 1 C-4.33 3.31 -4.66 5.62 -5 8 C-3.68 8.33 -2.36 8.66 -1 9 C-2.61594832 11.04119788 -4.2856382 13.04072937 -6 15 C-6.66 15 -7.32 15 -8 15 C-8.33 13.35 -8.66 11.7 -9 10 C-8.34 9.67 -7.68 9.34 -7 9 C-7 6.03 -7 3.06 -7 0 C-3 -1 -3 -1 0 0 Z " fill="#47D5FE" transform="translate(61,115)"/>
<path d="M0 0 C0.33 0.66 0.66 1.32 1 2 C2.98 1.67 4.96 1.34 7 1 C7 2.32 7 3.64 7 5 C3.74802092 6.08399303 3.15805973 5.92974275 0.0625 4.9375 C-3.21132742 4.01355402 -3.21132742 4.01355402 -6.5 4.875 C-7.2425 5.431875 -7.2425 5.431875 -8 6 C-8 5.34 -8 4.68 -8 4 C-3.64705882 0 -3.64705882 0 0 0 Z " fill="#53D6FE" transform="translate(182,164)"/>
<path d="M0 0 C-0.8125 1.9375 -0.8125 1.9375 -2 4 C-2.99 4.33 -3.98 4.66 -5 5 C-5 8.63 -5 12.26 -5 16 C-5.66 16 -6.32 16 -7 16 C-8.19875732 10.55110309 -8.01092008 7.73144584 -5 3 C-2.5 0 -2.5 0 0 0 Z " fill="#C6F5FE" transform="translate(280,220)"/>
<path d="M0 0 C-2.21299304 3.49419954 -4.01798209 4.8622806 -8 6 C-10.8125 6.125 -10.8125 6.125 -13 6 C-9.04608494 0.06912741 -7.07897132 -0.71989539 0 0 Z " fill="#F3FCFE" transform="translate(288,220)"/>
<path d="M0 0 C1.98738098 0.01761863 3.97253109 0.16698176 5.953125 0.33203125 C4.963125 0.66203125 3.973125 0.99203125 2.953125 1.33203125 C2.623125 2.32203125 2.293125 3.31203125 1.953125 4.33203125 C-0.37803817 5.93972999 -1.47503926 6.42733721 -4.296875 5.95703125 C-4.874375 5.75078125 -5.451875 5.54453125 -6.046875 5.33203125 C-3.15469741 0.51173527 -3.15469741 0.51173527 0 0 Z " fill="#FBFEFF" transform="translate(61.046875,219.66796875)"/>
<path d="M0 0 C0.9075 0.103125 1.815 0.20625 2.75 0.3125 C2.75 0.9725 2.75 1.6325 2.75 2.3125 C3.41 2.6425 4.07 2.9725 4.75 3.3125 C0.6294254 5.31035435 -2.70194365 5.49085515 -7.25 5.3125 C-4.05 0.38942308 -4.05 0.38942308 0 0 Z " fill="#ECFBFE" transform="translate(61.25,108.6875)"/>
<path d="M0 0 C1.98 0 3.96 0 6 0 C5 3 5 3 3 4 C2.34444881 6.52733235 2.34444881 6.52733235 2 9 C2.99 9.33 3.98 9.66 5 10 C4.01 10.99 3.02 11.98 2 13 C0.18884044 11.18884044 0.61800552 8.38721773 0.4375 5.9375 C0.35371094 4.83277344 0.26992187 3.72804687 0.18359375 2.58984375 C0.09271484 1.30787109 0.09271484 1.30787109 0 0 Z " fill="#4CD5FE" transform="translate(165,55)"/>
<path d="M0 0 C0.66 0 1.32 0 2 0 C3.50662097 3.01324195 3.17770373 5.68286377 3 9 C2.34 9.66 1.68 10.32 1 11 C-1.78637633 6.8204355 -0.79562512 4.85331323 0 0 Z " fill="#2EDAFD" transform="translate(34,264)"/>
<path d="M0 0 C0.99 0.33 1.98 0.66 3 1 C3.33 1.99 3.66 2.98 4 4 C2.7625 4.28875 1.525 4.5775 0.25 4.875 C-2.7493524 5.61558084 -5.25452116 6.57641838 -8 8 C-8.99 8 -9.98 8 -11 8 C-10.67 7.01 -10.34 6.02 -10 5 C-7.96875 4.12109375 -7.96875 4.12109375 -5.5 3.4375 C-3.08504595 2.79615283 -3.08504595 2.79615283 -1 2 C-0.67 1.34 -0.34 0.68 0 0 Z " fill="#3ED2FE" transform="translate(64,221)"/>
<path d="M0 0 C0.7425 0.350625 1.485 0.70125 2.25 1.0625 C5.1322726 2.04509293 6.21176345 2.0326802 9 1 C9 2.32 9 3.64 9 5 C5.59068103 6.13643966 4.99664544 5.86747764 1.8125 4.5625 C1.09707031 4.27503906 0.38164062 3.98757812 -0.35546875 3.69140625 C-0.89816406 3.46324219 -1.44085938 3.23507813 -2 3 C-1.34 2.01 -0.68 1.02 0 0 Z " fill="#58D7FE" transform="translate(285,125)"/>
<path d="M0 0 C3.00617269 3.00617269 2.59585316 5.82381598 3 10 C1.68 10 0.36 10 -1 10 C-1.02689216 8.52093108 -1.04634621 7.04172517 -1.0625 5.5625 C-1.07410156 4.73878906 -1.08570313 3.91507812 -1.09765625 3.06640625 C-1 1 -1 1 0 0 Z " fill="#DFF9FE" transform="translate(296,120)"/>
<path d="M0 0 C2.97 0 5.94 0 9 0 C8.34 0.66 7.68 1.32 7 2 C7.99 3.32 8.98 4.64 10 6 C6.93109813 7.53445094 4.29905734 6.54984289 1 6 C1.495 5.54625 1.99 5.0925 2.5 4.625 C4.22609337 3.12364481 4.22609337 3.12364481 4 1 C2.68 0.67 1.36 0.34 0 0 Z " fill="#5FDCFE" transform="translate(60,108)"/>
<path d="M0 0 C3.78786597 0.5260925 6.17152224 1.38103911 9 4 C9 4.66 9 5.32 9 6 C4.70042176 5.52226908 2.78280018 4.29813355 0 1 C0 0.67 0 0.34 0 0 Z " fill="#E9FBFE" transform="translate(66,109)"/>
<path d="M0 0 C0.66 0 1.32 0 2 0 C2.33 0.66 2.66 1.32 3 2 C4.65 1.67 6.3 1.34 8 1 C7.67 2.65 7.34 4.3 7 6 C4 5 1 4 -2 3 C-1.34 2.01 -0.68 1.02 0 0 Z " fill="#54D7FE" transform="translate(176,59)"/>
<path d="M0 0 C0.33 0 0.66 0 1 0 C1.33 3.63 1.66 7.26 2 11 C1.01 10.67 0.02 10.34 -1 10 C-1.02689216 8.52093108 -1.04634621 7.04172517 -1.0625 5.5625 C-1.07410156 4.73878906 -1.08570313 3.91507813 -1.09765625 3.06640625 C-1 1 -1 1 0 0 Z " fill="#BFF3FD" transform="translate(164,54)"/>
<path d="M0 0 C0.66 0 1.32 0 2 0 C2 2.64 2 5.28 2 8 C0.68 8.33 -0.64 8.66 -2 9 C-2.33 8.01 -2.66 7.02 -3 6 C-2.01 6 -1.02 6 0 6 C0 4.02 0 2.04 0 0 Z " fill="#7AE2FE" transform="translate(74,230)"/>
<path d="M0 0 C0.99 0.33 1.98 0.66 3 1 C3.1875 3.375 3.1875 3.375 3 6 C2.01 6.66 1.02 7.32 0 8 C0 5.36 0 2.72 0 0 Z " fill="#DDF8FE" transform="translate(52,229)"/>
<path d="M0 0 C0.66 0 1.32 0 2 0 C3.7143618 1.95927063 5.38405168 3.95880212 7 6 C2.545 5.01 2.545 5.01 -2 4 C-1.34 2.68 -0.68 1.36 0 0 Z " fill="#38D0FE" transform="translate(180,155)"/>
<path d="M0 0 C0.66 0.33 1.32 0.66 2 1 C2 3.64 2 6.28 2 9 C1.01 9 0.02 9 -1 9 C-1 8.34 -1 7.68 -1 7 C-1.99 6.67 -2.98 6.34 -4 6 C-3.34 5.67 -2.68 5.34 -2 5 C-1.01 5.33 -0.02 5.66 1 6 C0.67 4.02 0.34 2.04 0 0 Z " fill="#2BCDFE" transform="translate(72,117)"/>
<path d="M0 0 C1.485 0.99 1.485 0.99 3 2 C3.1875 4.625 3.1875 4.625 3 7 C2.01 7.33 1.02 7.66 0 8 C0 5.36 0 2.72 0 0 Z " fill="#EEFCFE" transform="translate(52,117)"/>
<path d="M0 0 C0 1.32 0 2.64 0 4 C-0.99 4.33 -1.98 4.66 -3 5 C-3.99 4.01 -4.98 3.02 -6 2 C-3 0 -3 0 0 0 Z " fill="#67DBFE" transform="translate(189,165)"/>
<path d="M0 0 C0.99 0.33 1.98 0.66 3 1 C3 2.98 3 4.96 3 7 C2.01 6.67 1.02 6.34 0 6 C0 4.02 0 2.04 0 0 Z " fill="#EEFCFE" transform="translate(167,163)"/>
<path d="M0 0 C0.99 0.33 1.98 0.66 3 1 C3 2.98 3 4.96 3 7 C2.34 7 1.68 7 1 7 C0.67 4.69 0.34 2.38 0 0 Z " fill="#E2FAFE" transform="translate(272,229)"/>
<path d="M0 0 C0.99 0.33 1.98 0.66 3 1 C3.33 1.99 3.66 2.98 4 4 C1.36 4.33 -1.28 4.66 -4 5 C-2.68 3.35 -1.36 1.7 0 0 Z " fill="#3DD1FE" transform="translate(64,118)"/>
<path d="M0 0 C3 1 3 1 4 3 C0.7 3.33 -2.6 3.66 -6 4 C-4 2.66666667 -2 1.33333333 0 0 Z " fill="#6DDDFE" transform="translate(63,231)"/>
</svg>
